<svg width="24" height="24" viewBox="0 0 24 24" fill="none" xmlns="http://www.w3.org/2000/svg">
<path fill-rule="evenodd" clip-rule="evenodd" d="M3.87348 17.3165C3.48558 17.6374 3.39535 17.8876 3.39535 18.0463C3.39535 18.2049 3.48558 18.4551 3.87348 18.7761C4.25694 19.0934 4.85378 19.4103 5.65274 19.69C7.24422 20.247 9.48829 20.6044 12 20.6044C14.5117 20.6044 16.7558 20.247 18.3473 19.69C19.1462 19.4103 19.7431 19.0934 20.1265 18.7761C20.5144 18.4551 20.6047 18.2049 20.6047 18.0463C20.6047 17.8876 20.5144 17.6374 20.1265 17.3165C19.7431 16.9992 19.1462 16.6822 18.3473 16.4026C16.7558 15.8455 14.5117 15.4881 12 15.4881C9.48829 15.4881 7.24422 15.8455 5.65274 16.4026C4.85378 16.6822 4.25694 16.9992 3.87348 17.3165ZM5.19179 15.0855C6.96708 14.4642 9.37418 14.0928 12 14.0928C14.6258 14.0928 17.0329 14.4642 18.8082 15.0855C19.6926 15.3951 20.4581 15.7797 21.0161 16.2414C21.5696 16.6995 22 17.3058 22 18.0463C22 18.7867 21.5696 19.393 21.0161 19.8511C20.4581 20.3128 19.6926 20.6974 18.8082 21.007C17.0329 21.6283 14.6258 21.9998 12 21.9998C9.37418 21.9998 6.96708 21.6283 5.19179 21.007C4.30736 20.6974 3.5419 20.3128 2.98391 19.8511C2.43036 19.393 2 18.7867 2 18.0463C2 17.3058 2.43036 16.6995 2.98391 16.2414C3.5419 15.7797 4.30736 15.3951 5.19179 15.0855Z" fill="#131B2A"/>
<path fill-rule="evenodd" clip-rule="evenodd" d="M12.0004 2C12.3857 2 12.6981 2.31236 12.6981 2.69767V17.5814C12.6981 17.9667 12.3857 18.2791 12.0004 18.2791C11.6151 18.2791 11.3027 17.9667 11.3027 17.5814V2.69767C11.3027 2.31236 11.6151 2 12.0004 2Z" fill="#131B2A"/>
<path fill-rule="evenodd" clip-rule="evenodd" d="M11.3756 3.78035C11.5479 3.43572 11.967 3.29602 12.3116 3.46834L17.3556 5.99033C17.3724 5.99873 17.3892 6.0071 17.4059 6.01544C18.0891 6.35698 18.6714 6.64811 19.0767 6.93096C19.4876 7.21777 19.9196 7.63422 19.9196 8.27841C19.9196 8.9226 19.4876 9.33904 19.0767 9.62585C18.6714 9.9087 18.0891 10.1998 17.4059 10.5414L12.3116 13.0885C11.967 13.2608 11.5479 13.1211 11.3756 12.7765C11.2032 12.4318 11.3429 12.0127 11.6876 11.8404L16.7316 9.31844C17.479 8.94478 17.9671 8.69866 18.2781 8.48163C18.4252 8.37896 18.4886 8.31276 18.5144 8.27841C18.4886 8.24405 18.4252 8.17786 18.2781 8.07518C17.9671 7.85816 17.479 7.61203 16.7316 7.23837L11.6876 4.71638C11.3429 4.54406 11.2032 4.12499 11.3756 3.78035ZM18.5304 8.30698C18.5297 8.3069 18.5275 8.303 18.5259 8.29549C18.5304 8.30329 18.5312 8.30705 18.5304 8.30698ZM18.5259 8.26132C18.5275 8.25381 18.5297 8.24991 18.5304 8.24983C18.5312 8.24976 18.5304 8.25352 18.5259 8.26132Z" fill="#131B2A"/>
</svg>
