<svg width="24" height="24" viewBox="0 0 24 24" fill="none" xmlns="http://www.w3.org/2000/svg">
<path fill-rule="evenodd" clip-rule="evenodd" d="M11.5814 4.25581C7.53559 4.25581 4.25581 7.53559 4.25581 11.5814C4.25581 15.6272 7.53559 18.907 11.5814 18.907C15.6272 18.907 18.907 15.6272 18.907 11.5814C18.907 7.53559 15.6272 4.25581 11.5814 4.25581ZM3 11.5814C3 6.84202 6.84202 3 11.5814 3C16.3208 3 20.1628 6.84202 20.1628 11.5814C20.1628 13.7251 19.3768 15.6852 18.0772 17.1892L20.8161 19.9281C21.0613 20.1733 21.0613 20.5709 20.8161 20.8161C20.5709 21.0613 20.1733 21.0613 19.9281 20.8161L17.1892 18.0772C15.6852 19.3768 13.7251 20.1628 11.5814 20.1628C6.84202 20.1628 3 16.3208 3 11.5814Z" fill="#7E818F"/>
</svg>
