<svg width="22" height="22" viewBox="0 0 22 22" fill="none" xmlns="http://www.w3.org/2000/svg">
<path fill-rule="evenodd" clip-rule="evenodd" d="M8.33166 1.72362C6.45003 1.72362 4.92467 3.24898 4.92467 5.13061C4.92467 7.01224 6.45003 8.5376 8.33166 8.5376C10.2133 8.5376 11.7386 7.01224 11.7386 5.13061C11.7386 3.24898 10.2133 1.72362 8.33166 1.72362ZM3.20117 5.13061C3.20117 2.29712 5.49817 0.00012207 8.33166 0.00012207C11.1651 0.00012207 13.4621 2.29712 13.4621 5.13061C13.4621 7.9641 11.1651 10.2611 8.33166 10.2611C5.49817 10.2611 3.20117 7.9641 3.20117 5.13061Z" fill="#131B2A"/>
<path fill-rule="evenodd" clip-rule="evenodd" d="M13.873 1.92889C13.873 1.45296 14.2589 1.06714 14.7348 1.06714C16.9789 1.06714 18.7981 2.88634 18.7981 5.13044C18.7981 7.37454 16.9789 9.19375 14.7348 9.19375C14.2589 9.19375 13.873 8.80793 13.873 8.33199C13.873 7.85606 14.2589 7.47024 14.7348 7.47024C16.027 7.47024 17.0746 6.42268 17.0746 5.13044C17.0746 3.83821 16.027 2.79064 14.7348 2.79064C14.2589 2.79064 13.873 2.40482 13.873 1.92889Z" fill="#131B2A"/>
<path fill-rule="evenodd" clip-rule="evenodd" d="M3.4773 14.5995C2.25344 15.2988 1.7235 16.1337 1.7235 16.8697C1.7235 17.6058 2.25344 18.4406 3.4773 19.14C4.67677 19.8254 6.39136 20.2767 8.33204 20.2767C10.2727 20.2767 11.9873 19.8254 13.1868 19.14C14.4106 18.4406 14.9406 17.6058 14.9406 16.8697C14.9406 16.1337 14.4106 15.2988 13.1868 14.5995C11.9873 13.9141 10.2727 13.4628 8.33204 13.4628C6.39136 13.4628 4.67677 13.9141 3.4773 14.5995ZM2.6222 13.1031C4.12643 12.2435 6.14699 11.7393 8.33204 11.7393C10.5171 11.7393 12.5376 12.2435 14.0419 13.1031C15.5217 13.9487 16.6641 15.2483 16.6641 16.8697C16.6641 18.4912 15.5217 19.7908 14.0419 20.6364C12.5376 21.496 10.5171 22.0002 8.33204 22.0002C6.14699 22.0002 4.12643 21.496 2.6222 20.6364C1.14234 19.7908 0 18.4912 0 16.8697C0 15.2483 1.14234 13.9487 2.6222 13.1031Z" fill="#131B2A"/>
<path fill-rule="evenodd" clip-rule="evenodd" d="M17.0944 13.4837C17.1963 13.0189 17.6559 12.7246 18.1207 12.8266C19.1542 13.0532 20.0887 13.4632 20.7847 14.0327C21.48 14.6017 21.9995 15.3894 21.9995 16.3363C21.9995 17.1888 21.5764 17.916 20.985 18.4653C20.3964 19.0121 19.6025 19.4249 18.7182 19.6911C18.2625 19.8284 17.7818 19.5702 17.6446 19.1144C17.5074 18.6587 17.7656 18.178 18.2213 18.0408C18.9231 17.8295 19.4632 17.5267 19.812 17.2026C20.1581 16.8811 20.276 16.5822 20.276 16.3363C20.276 16.0655 20.1307 15.7245 19.6932 15.3665C19.2565 15.0091 18.5902 14.694 17.7516 14.5101C17.2867 14.4081 16.9925 13.9486 17.0944 13.4837Z" fill="#131B2A"/>
</svg>
