<svg width="32" height="32" viewBox="0 0 32 32" fill="none" xmlns="http://www.w3.org/2000/svg">
<path fill-rule="evenodd" clip-rule="evenodd" d="M27.3333 21C27.3333 21.5523 26.8855 22 26.3333 22L4.99992 22C4.44763 22 3.99992 21.5523 3.99992 21C3.99992 20.4477 4.44763 20 4.99992 20L26.3333 20C26.8855 20 27.3333 20.4477 27.3333 21Z" fill="#131B2A"/>
<path fill-rule="evenodd" clip-rule="evenodd" d="M27.3333 16C27.3333 16.5523 26.8855 17 26.3333 17L4.99992 17C4.44763 17 3.99992 16.5523 3.99992 16C3.99992 15.4477 4.44763 15 4.99992 15L26.3333 15C26.8855 15 27.3333 15.4477 27.3333 16Z" fill="#131B2A"/>
<path fill-rule="evenodd" clip-rule="evenodd" d="M27.3333 11C27.3333 11.5523 26.8855 12 26.3333 12L4.99992 12C4.44763 12 3.99992 11.5523 3.99992 11C3.99992 10.4477 4.44763 10 4.99992 10L26.3333 10C26.8855 10 27.3333 10.4477 27.3333 11Z" fill="#131B2A"/>
</svg>
