<?xml version="1.0" encoding="UTF-8"?>
<!-- Created with Inkscape (http://www.inkscape.org/) -->
<svg width="120" height="120" version="1.1" viewBox="0 0 31.75 31.75" xml:space="preserve" xmlns="http://www.w3.org/2000/svg"><g transform="matrix(1.1339 0 0 1.1339 -4.461e-7 3.8478e-5)" fill="#fff"><path d="m19.09 0.95828c-2.6255-1.0248-5.4992-1.2333-8.2451-0.59824-2.7459 0.63506-5.2362 2.0841-7.1452 4.1576-1.9089 2.0735-3.1476 4.6749-3.5539 7.4638-0.40635 2.7889 0.038531 5.6356 1.2764 8.1676 1.2379 2.532 3.2112 4.6314 5.6618 6.0236 2.4506 1.3921 5.2642 2.0123 8.073 1.7793l1.1659-0.0968v-3.4639l-1.4513 0.1204c-2.1162 0.1756-4.2361-0.2916-6.0824-1.3405-1.8463-1.0489-3.333-2.6307-4.2657-4.5384-0.93267-1.9076-1.2679-4.0524-0.9617-6.1536 0.30615-2.1013 1.2394-4.0612 2.6776-5.6234 1.4382-1.5622 3.3145-2.654 5.3833-3.1324 2.0689-0.47847 4.234-0.32137 6.2121 0.45073 1.9781 0.77211 3.6771 2.1233 4.8747 3.8768 1.1977 1.7535 1.8382 3.8276 1.8379 5.951l-4e-4 1.7261h5e-4v3.6963c0 0.9003-0.7299 1.6301-1.6302 1.6301s-1.6301-0.7298-1.6301-1.6301v-5.5201h-6e-4c-0.0513-3.9807-3.2942-7.1918-7.287-7.1918-4.0249 0-7.2877 3.2628-7.2877 7.2876 0 4.0249 3.2628 7.2877 7.2877 7.2877 1.4299 0 2.7636-0.4118 3.889-1.1234 0.3584 2.4561 2.4733 4.3422 5.0287 4.3422 2.8068 0 5.0822-2.2754 5.0822-5.0822v-5.5201h-4e-4c-0.0191-2.784-0.8679-5.5001-2.439-7.8003-1.5896-2.3273-3.8447-4.1207-6.4701-5.1455zm-4.0398 13.276c0.6608-0.3703 1.1075-1.0774 1.1075-1.8888 0-1.1949-0.9687-2.1636-2.1636-2.1636-1.195 0-2.1636 0.9687-2.1636 2.1636 0 0.8025 0.4368 1.5029 1.0857 1.8765l-1.3216 3.5962h4.7727z" clip-rule="evenodd" fill="#fff" fill-rule="evenodd"/></g></svg>
