<svg width="16" height="16" viewBox="0 0 16 16" fill="none" xmlns="http://www.w3.org/2000/svg">
<path fill-rule="evenodd" clip-rule="evenodd" d="M6.03308 2.38719C7.85547 0.537466 10.8 0.537466 12.6224 2.38719C14.4592 4.2516 14.4592 7.28613 12.6224 9.15054L7.84157 14.003C6.53206 15.3322 4.41909 15.3322 3.10958 14.003C1.7856 12.6592 1.7856 10.4687 3.10958 9.12482L7.82157 4.34215C8.61821 3.53356 9.89965 3.53356 10.6963 4.34215C11.5074 5.16542 11.5074 6.51194 10.6963 7.33522L5.9499 12.1528C5.71592 12.3903 5.34467 12.3817 5.12071 12.1336C4.89674 11.8855 4.90485 11.4918 5.13883 11.2543L9.88522 6.43675C10.2138 6.10321 10.2138 5.57416 9.88522 5.24061C9.54214 4.89239 8.97572 4.89239 8.63264 5.24061L3.92064 10.0233C3.07915 10.8774 3.07915 12.2505 3.92064 13.1046C4.7766 13.9734 6.17455 13.9734 7.03051 13.1046L11.8113 8.25207C13.1657 6.87739 13.1657 4.66033 11.8113 3.28565C10.4425 1.89629 8.21297 1.89629 6.84414 3.28565L2.992 7.19558C2.75802 7.43306 2.38678 7.42446 2.16281 7.17636C1.93884 6.92825 1.94695 6.5346 2.18093 6.29711L6.03308 2.38719Z" fill="#131B2A"/>
</svg>
