<svg width="24" height="24" viewBox="0 0 24 24" fill="none" xmlns="http://www.w3.org/2000/svg">
<path fill-rule="evenodd" clip-rule="evenodd" d="M2 6.63415C2 4.07478 4.07478 2 6.63415 2C9.19351 2 11.2683 4.07478 11.2683 6.63415V9.23577C11.2683 9.25652 11.2683 9.27738 11.2684 9.29832C11.2688 9.53498 11.2693 9.78185 11.2101 10.0029C11.0522 10.592 10.592 11.0522 10.0029 11.2101C9.78185 11.2693 9.53498 11.2688 9.29832 11.2684C9.27738 11.2683 9.25652 11.2683 9.23577 11.2683H6.63415C4.07478 11.2683 2 9.19351 2 6.63415ZM6.63415 3.46341C4.883 3.46341 3.46341 4.883 3.46341 6.63415C3.46341 8.38529 4.883 9.80488 6.63415 9.80488H9.23577C9.39362 9.80488 9.4876 9.8047 9.55818 9.80148C9.60259 9.79946 9.62174 9.7967 9.62648 9.79592C9.70872 9.77299 9.77299 9.70872 9.79592 9.62648C9.7967 9.62175 9.79946 9.60259 9.80148 9.55818C9.8047 9.4876 9.80488 9.39362 9.80488 9.23577V6.63415C9.80488 4.883 8.38529 3.46341 6.63415 3.46341Z" fill="#131B2A"/>
<path fill-rule="evenodd" clip-rule="evenodd" d="M14.7017 12.7316C14.7226 12.7317 14.7435 12.7317 14.7642 12.7317H17.3659C19.9252 12.7317 22 14.8065 22 17.3659C22 19.9252 19.9252 22 17.3659 22C14.8065 22 12.7317 19.9252 12.7317 17.3659V14.7642C12.7317 14.7435 12.7317 14.7226 12.7316 14.7017C12.7312 14.465 12.7307 14.2182 12.7899 13.9971C12.9478 13.408 13.408 12.9478 13.9971 12.7899C14.2182 12.7307 14.465 12.7312 14.7017 12.7316ZM14.3735 14.2041C14.2913 14.227 14.227 14.2913 14.2041 14.3735C14.2033 14.3783 14.2005 14.3974 14.1985 14.4418C14.1953 14.5124 14.1951 14.6064 14.1951 14.7642V17.3659C14.1951 19.117 15.6147 20.5366 17.3659 20.5366C19.117 20.5366 20.5366 19.117 20.5366 17.3659C20.5366 15.6147 19.117 14.1951 17.3659 14.1951H14.7642C14.6064 14.1951 14.5124 14.1953 14.4418 14.1985C14.3974 14.2005 14.3783 14.2033 14.3735 14.2041Z" fill="#131B2A"/>
<path fill-rule="evenodd" clip-rule="evenodd" d="M9.5568 14.206C9.43083 14.1957 9.26088 14.1951 8.97561 14.1951H6.63415C4.883 14.1951 3.46341 15.6147 3.46341 17.3659C3.46341 19.117 4.883 20.5366 6.63415 20.5366C8.38529 20.5366 9.80488 19.117 9.80488 17.3659V15.0244C9.80488 14.7391 9.80431 14.5692 9.79402 14.4432C9.78773 14.3663 9.77944 14.334 9.77676 14.3253C9.75381 14.2818 9.71822 14.2462 9.67467 14.2232C9.66601 14.2206 9.63369 14.2123 9.5568 14.206ZM9.6772 14.2241L9.67572 14.2236L9.6772 14.2241ZM9.77588 14.3228L9.77641 14.3243L9.77588 14.3228ZM9.67597 12.7474C9.88391 12.7644 10.1114 12.8033 10.3361 12.9178C10.6573 13.0815 10.9185 13.3427 11.0822 13.6639C11.1967 13.8886 11.2356 14.1161 11.2526 14.324C11.2683 14.5169 11.2683 14.7476 11.2683 14.9988L11.2683 17.3659C11.2683 19.9252 9.19351 22 6.63415 22C4.07478 22 2 19.9252 2 17.3659C2 14.8065 4.07478 12.7317 6.63415 12.7317L9.00119 12.7317C9.25239 12.7317 9.48311 12.7317 9.67597 12.7474Z" fill="#131B2A"/>
<path fill-rule="evenodd" clip-rule="evenodd" d="M12.7317 6.63415C12.7317 4.07478 14.8065 2 17.3659 2C19.9252 2 22 4.07478 22 6.63415C22 9.19351 19.9252 11.2683 17.3659 11.2683H14.5784C14.5695 11.2683 14.5605 11.2683 14.5516 11.2683C14.4502 11.2684 14.3449 11.2685 14.2479 11.2576C13.4563 11.1684 12.8316 10.5437 12.7424 9.75213C12.7315 9.65515 12.7316 9.54984 12.7317 9.44843C12.7317 9.43945 12.7317 9.43051 12.7317 9.4216V6.63415ZM17.3659 3.46341C15.6147 3.46341 14.1951 4.883 14.1951 6.63415V9.4216C14.1951 9.48915 14.1952 9.52936 14.1957 9.55971C14.1961 9.57901 14.1966 9.58741 14.1968 9.58942C14.21 9.70158 14.2984 9.79005 14.4106 9.80321C14.4126 9.80335 14.421 9.80387 14.4403 9.80425C14.4706 9.80485 14.5108 9.80488 14.5784 9.80488H17.3659C19.117 9.80488 20.5366 8.38529 20.5366 6.63415C20.5366 4.883 19.117 3.46341 17.3659 3.46341Z" fill="#131B2A"/>
</svg>
