<svg width="24" height="24" viewBox="0 0 24 24" fill="none" xmlns="http://www.w3.org/2000/svg">
<path fill-rule="evenodd" clip-rule="evenodd" d="M9.15826 2H14.8417C16.1139 1.99998 17.1393 1.99997 17.9458 2.10839C18.7831 2.22097 19.4881 2.4618 20.048 3.02172C20.608 3.58164 20.8488 4.28664 20.9614 5.12395C21.0698 5.93043 21.0698 6.95585 21.0698 8.22803V15.772C21.0698 17.0441 21.0698 18.0696 20.9614 18.876C20.8488 19.7134 20.608 20.4184 20.048 20.9783C19.4881 21.5382 18.7831 21.779 17.9458 21.8916C17.1393 22 16.1139 22 14.8417 22H9.15826C8.86662 22 8.58795 22 8.32191 21.9987C8.30774 21.9996 8.29345 22 8.27907 22C8.26204 22 8.24515 21.9994 8.22842 21.9982C7.37494 21.9929 6.65401 21.9722 6.05418 21.8916C5.21687 21.779 4.51188 21.5382 3.95195 20.9783C3.39203 20.4184 3.1512 19.7134 3.03863 18.876C2.94921 18.211 2.93354 17.397 2.93081 16.4186H2.69767C2.31236 16.4186 2 16.1062 2 15.7209C2 15.3356 2.31236 15.0233 2.69767 15.0233H2.93023V12.6977H2.69767C2.31236 12.6977 2 12.3853 2 12C2 11.6147 2.31236 11.3023 2.69767 11.3023H2.93023V8.97674H2.69767C2.31236 8.97674 2 8.66438 2 8.27907C2 7.89375 2.31236 7.5814 2.69767 7.5814H2.93081C2.93354 6.60296 2.94921 5.78901 3.03863 5.12395C3.1512 4.28664 3.39203 3.58164 3.95195 3.02172C4.51188 2.4618 5.21687 2.22097 6.05418 2.10839C6.86067 1.99997 7.88608 1.99998 9.15826 2ZM4.32558 8.97674H4.55814C4.94345 8.97674 5.25581 8.66438 5.25581 8.27907C5.25581 7.89375 4.94345 7.5814 4.55814 7.5814H4.3263C4.32928 6.60856 4.34446 5.88314 4.42153 5.30988C4.5133 4.6273 4.68116 4.26584 4.93861 4.00838C5.19607 3.75093 5.55753 3.58307 6.24011 3.4913C6.61377 3.44106 7.05207 3.41712 7.5814 3.40572V20.5943C7.05207 20.5829 6.61376 20.5589 6.24011 20.5087C5.55753 20.4169 5.19607 20.2491 4.93861 19.9916C4.68116 19.7342 4.5133 19.3727 4.42153 18.6901C4.34446 18.1169 4.32928 17.3914 4.3263 16.4186H4.55814C4.94345 16.4186 5.25581 16.1062 5.25581 15.7209C5.25581 15.3356 4.94345 15.0233 4.55814 15.0233H4.32558V12.6977H4.55814C4.94345 12.6977 5.25581 12.3853 5.25581 12C5.25581 11.6147 4.94345 11.3023 4.55814 11.3023H4.32558V8.97674ZM8.97674 20.6046C9.05288 20.6046 9.13038 20.6047 9.2093 20.6047H14.7907C16.126 20.6047 17.0572 20.6032 17.7599 20.5087C18.4425 20.4169 18.8039 20.2491 19.0614 19.9916C19.3188 19.7342 19.4867 19.3727 19.5785 18.6901C19.6729 17.9875 19.6744 17.0562 19.6744 15.7209V8.27907C19.6744 6.9438 19.6729 6.01253 19.5785 5.30988C19.4867 4.6273 19.3188 4.26584 19.0614 4.00838C18.8039 3.75093 18.4425 3.58307 17.7599 3.4913C17.0572 3.39683 16.126 3.39535 14.7907 3.39535H9.2093C9.13038 3.39535 9.05288 3.39535 8.97674 3.39538V20.6046ZM10.8372 6.88372C10.8372 6.49841 11.1496 6.18605 11.5349 6.18605H16.186C16.5714 6.18605 16.8837 6.49841 16.8837 6.88372C16.8837 7.26904 16.5714 7.5814 16.186 7.5814H11.5349C11.1496 7.5814 10.8372 7.26904 10.8372 6.88372ZM10.8372 10.1395C10.8372 9.75422 11.1496 9.44186 11.5349 9.44186H16.186C16.5714 9.44186 16.8837 9.75422 16.8837 10.1395C16.8837 10.5248 16.5714 10.8372 16.186 10.8372H11.5349C11.1496 10.8372 10.8372 10.5248 10.8372 10.1395Z" fill="#131B2A"/>
</svg>
