<svg width="24" height="24" viewBox="0 0 24 24" fill="none" xmlns="http://www.w3.org/2000/svg">
<path fill-rule="evenodd" clip-rule="evenodd" d="M11.9416 2H12.0584C14.1846 1.99999 15.8588 1.99997 17.1668 2.17584C18.509 2.35628 19.5802 2.73447 20.4229 3.57712C21.2655 4.41977 21.6437 5.49104 21.8242 6.83317C22 8.14122 22 9.81541 22 11.9416V12.0584C22 14.1846 22 15.8588 21.8242 17.1668C21.6437 18.509 21.2655 19.5802 20.4229 20.4229C19.5802 21.2655 18.509 21.6437 17.1668 21.8242C15.8588 22 14.1846 22 12.0584 22H11.9416C9.81541 22 8.14122 22 6.83317 21.8242C5.49104 21.6437 4.41977 21.2655 3.57712 20.4229C2.73447 19.5802 2.35628 18.509 2.17584 17.1668C1.99997 15.8588 1.99999 14.1846 2 12.0584V11.9416C1.99999 9.8154 1.99997 8.14122 2.17584 6.83317C2.35628 5.49104 2.73447 4.41977 3.57712 3.57712C4.41977 2.73447 5.49104 2.35628 6.83317 2.17584C8.14122 1.99997 9.8154 1.99999 11.9416 2ZM7.03817 3.70058C5.86663 3.85809 5.17414 4.15581 4.66497 4.66497C4.15581 5.17414 3.85809 5.86663 3.70058 7.03817C3.5401 8.23183 3.53846 9.80254 3.53846 12C3.53846 14.1975 3.5401 15.7682 3.70058 16.9618C3.85809 18.1334 4.15581 18.8259 4.66497 19.335C5.17414 19.8442 5.86663 20.1419 7.03817 20.2994C8.23183 20.4599 9.80254 20.4615 12 20.4615C14.1975 20.4615 15.7682 20.4599 16.9618 20.2994C18.1334 20.1419 18.8259 19.8442 19.335 19.335C19.8442 18.8259 20.1419 18.1334 20.2994 16.9618C20.4599 15.7682 20.4615 14.1975 20.4615 12C20.4615 9.80254 20.4599 8.23183 20.2994 7.03817C20.1419 5.86663 19.8442 5.17414 19.335 4.66497C18.8259 4.15581 18.1334 3.85809 16.9618 3.70058C15.7682 3.5401 14.1975 3.53846 12 3.53846C9.80254 3.53846 8.23183 3.5401 7.03817 3.70058Z" fill="#131B2A"/>
<path fill-rule="evenodd" clip-rule="evenodd" d="M12.0004 8.1543C12.4253 8.1543 12.7697 8.49869 12.7697 8.92353V11.2312L15.0774 11.2312C15.5022 11.2312 15.8466 11.5756 15.8466 12.0005C15.8466 12.4253 15.5022 12.7697 15.0774 12.7697L12.7697 12.7697L12.7697 15.0774C12.7697 15.5022 12.4253 15.8466 12.0004 15.8466C11.5756 15.8466 11.2312 15.5022 11.2312 15.0774L11.2312 12.7697H8.92353C8.49869 12.7697 8.1543 12.4253 8.1543 12.0005C8.1543 11.5756 8.49869 11.2312 8.92353 11.2312L11.2312 11.2312L11.2312 8.92353C11.2312 8.49869 11.5756 8.1543 12.0004 8.1543Z" fill="#131B2A"/>
</svg>
