<svg width="24" height="24" viewBox="0 0 24 24" fill="none" xmlns="http://www.w3.org/2000/svg">
<path d="M20.4208 5.81555H4.54297" stroke="#7E818F" stroke-width="1.5" stroke-linecap="round"/>
<path d="M18.864 8.16199L18.4345 14.6372C18.2692 17.129 18.1865 18.3749 17.3786 19.1345C16.5707 19.894 15.3281 19.894 12.843 19.894H12.1207C9.63553 19.894 8.39296 19.894 7.58505 19.1345C6.77715 18.3749 6.6945 17.129 6.52919 14.6372L6.09961 8.16199" stroke="#7E818F" stroke-width="1.5" stroke-linecap="round"/>
<path d="M10.1475 10.5082L10.6145 15.201" stroke="#7E818F" stroke-width="1.5" stroke-linecap="round"/>
<path d="M14.8166 10.5082L14.3496 15.201" stroke="#7E818F" stroke-width="1.5" stroke-linecap="round"/>
<path d="M7.34473 5.81556C7.39692 5.81556 7.42301 5.81556 7.44667 5.81496C8.21575 5.79538 8.89423 5.30396 9.15592 4.57696C9.16397 4.5546 9.17222 4.52972 9.18873 4.47997L9.2794 4.2066C9.35681 3.97324 9.39552 3.85656 9.44685 3.75749C9.65167 3.36223 10.0306 3.08776 10.4685 3.01749C10.5783 2.99988 10.7007 2.99988 10.9455 2.99988H14.0178C14.2626 2.99988 14.385 2.99988 14.4947 3.01749C14.9326 3.08776 15.3116 3.36223 15.5164 3.75749C15.5677 3.85656 15.6064 3.97324 15.6839 4.2066L15.7745 4.47997C15.791 4.52966 15.7993 4.55461 15.8073 4.57696C16.069 5.30396 16.7475 5.79538 17.5166 5.81496C17.5402 5.81556 17.5663 5.81556 17.6185 5.81556" stroke="#7E818F" stroke-width="1.5"/>
<path d="M3.76084 6.5395C3.34064 6.18518 3.28559 5.55593 3.63788 5.13403C3.99017 4.71213 4.61639 4.65734 5.03659 5.01166L20.2392 17.8307C20.6594 18.185 20.7144 18.8142 20.3621 19.2362C20.0098 19.6581 19.3836 19.7128 18.9634 19.3585L3.76084 6.5395Z" fill="#7E818F"/>
<path fill-rule="evenodd" clip-rule="evenodd" d="M5.6777 4.24404L20.8803 17.0631C21.7227 17.7734 21.833 19.0349 21.1268 19.8807C20.4205 20.7266 19.165 20.8364 18.3226 20.1261L3.12006 7.30706C2.27764 6.59672 2.16727 5.3352 2.87355 4.48936C3.57982 3.64353 4.83528 3.5337 5.6777 4.24404ZM3.63804 5.134C3.28575 5.5559 3.3408 6.18515 3.761 6.53947L18.9636 19.3585C19.3838 19.7128 20.01 19.658 20.3623 19.2361C20.7146 18.8142 20.6595 18.185 20.2393 17.8306L5.03676 5.01163C4.61656 4.65731 3.99033 4.71209 3.63804 5.134Z" fill="white"/>
</svg>
