<svg width="16" height="16" viewBox="0 0 16 16" fill="none" xmlns="http://www.w3.org/2000/svg">
<path d="M8.55 14.1842C8.1064 14.2597 7.63648 14.3002 7.15 14.3002C4.4438 14.3002 2.25 13.0466 2.25 11.5002C2.25 9.95377 4.4438 8.70017 7.15 8.70017C8.34946 8.70017 9.44826 8.94644 10.3 9.35532M9.95 3.8C9.95 5.3464 8.6964 6.6 7.15 6.6C5.6036 6.6 4.35 5.3464 4.35 3.8C4.35 2.2536 5.6036 1 7.15 1C8.6964 1 9.95 2.2536 9.95 3.8ZM13.4499 12.2C13.4499 13.7464 12.1963 15 10.6499 15C9.10352 15 7.84991 13.7464 7.84991 12.2C7.84991 10.6536 9.10352 9.4 10.6499 9.4C12.1963 9.4 13.4499 10.6536 13.4499 12.2Z" stroke="#131B2A" stroke-opacity="0.8" stroke-width="1.1"/>
<path d="M9.71631 11.2666L11.583 13.1333M11.5832 11.2666L9.71654 13.1333" stroke="#131B2A" stroke-opacity="0.8" stroke-linecap="round" stroke-linejoin="round"/>
</svg>
