<svg width="24" height="24" viewBox="0 0 24 24" fill="none" xmlns="http://www.w3.org/2000/svg">
<path d="M12 2L12 9.99997M12 9.99997L15 6.99998M12 9.99997L9 6.99998" stroke="#7E818F" stroke-width="1.7" stroke-linecap="round"/>
<path d="M2 12.9999H5.16025C6.06541 12.9999 6.518 12.9999 6.91582 13.1829C7.31365 13.3659 7.60818 13.7095 8.19726 14.3968L8.80268 15.1031C9.39176 15.7904 9.6863 16.134 10.0841 16.317C10.4819 16.4999 10.9345 16.4999 11.8397 16.4999H12.1602C13.0654 16.4999 13.518 16.4999 13.9158 16.317C14.3136 16.134 14.6082 15.7904 15.1972 15.1031L15.8027 14.3968C16.3917 13.7095 16.6863 13.3659 17.0841 13.1829C17.4819 12.9999 17.9345 12.9999 18.8397 12.9999H21.9999" stroke="#7E818F" stroke-width="1.7" stroke-linecap="round"/>
<path d="M16.9999 2.12695C18.6251 2.28681 19.719 2.64807 20.5355 3.46455C21.9999 4.92901 21.9999 7.28602 21.9999 12C21.9999 16.7141 21.9999 19.0711 20.5355 20.5355C19.071 22 16.714 22 12 22C7.28593 22 4.92892 22 3.46446 20.5355C2 19.0711 2 16.7141 2 12C2 7.28602 2 4.92901 3.46446 3.46455C4.28093 2.64807 5.37484 2.28681 6.99998 2.12695" stroke="#7E818F" stroke-width="1.7" stroke-linecap="round"/>
</svg>
