<svg width="24" height="24" viewBox="0 0 24 24" fill="none" xmlns="http://www.w3.org/2000/svg">
<path d="M13.9875 11.1839C14.645 11.1839 15.1779 10.6531 15.1779 9.99837C15.1779 9.34364 14.645 8.81287 13.9875 8.81287C13.3301 8.81287 12.7972 9.34364 12.7972 9.99837C12.7972 10.6531 13.3301 11.1839 13.9875 11.1839Z" fill="#7E818F"/>
<path fill-rule="evenodd" clip-rule="evenodd" d="M4.31802 4.31802C3 5.63604 3 7.75736 3 12C3 16.2426 3 18.364 4.31802 19.682C5.63604 21 7.75736 21 12 21C16.2426 21 18.364 21 19.682 19.682C21 18.364 21 16.2426 21 12C21 7.75736 21 5.63604 19.682 4.31802C18.364 3 16.2426 3 12 3C7.75736 3 5.63604 3 4.31802 4.31802ZM13.9876 13.3969C15.8722 13.3969 17.4 11.8754 17.4 9.99845C17.4 8.12154 15.8722 6.6 13.9876 6.6C12.103 6.6 10.5752 8.12154 10.5752 9.99845C10.5752 10.8678 10.972 11.5001 10.972 11.5001L6.84538 15.6099C6.66021 15.7943 6.40097 16.2737 6.84538 16.7163L7.32153 17.1905C7.50669 17.3486 7.97224 17.5699 8.35316 17.1905L8.90867 16.6373C9.46417 17.1905 10.099 16.8744 10.3371 16.5583C10.7339 16.005 10.2578 15.4518 10.2578 15.4518L10.4165 15.2937C11.1783 16.0524 11.8449 15.6099 12.083 15.2937C12.4798 14.7405 12.083 14.1872 12.083 14.1872C12.0363 14.0942 11.9758 14.0285 11.9238 13.9721C11.7993 13.8369 11.7237 13.7548 12.0036 13.476L12.4798 13.0017C12.8607 13.3179 13.6437 13.3969 13.9876 13.3969Z" fill="#7E818F"/>
</svg>
