<svg width="24" height="24" viewBox="0 0 24 24" fill="none" xmlns="http://www.w3.org/2000/svg">
<path fill-rule="evenodd" clip-rule="evenodd" d="M3.50623 7.01614C3.19 5.21137 4.57876 3.55811 6.41103 3.55811H17.5889C19.4212 3.55811 20.8099 5.21137 20.4937 7.01614L18.9818 6.75123C19.1335 5.88578 18.4675 5.09299 17.5889 5.09299H6.41103C5.53239 5.09299 4.86644 5.88578 5.01808 6.75123L3.50623 7.01614Z" fill="#7E818F"/>
<path fill-rule="evenodd" clip-rule="evenodd" d="M8.6227 1.00001C8.6367 1.00001 8.6509 1.00001 8.66531 1.00001H15.3347C15.3491 1.00001 15.3633 1.00001 15.3773 1.00001C15.6022 0.999946 15.7747 0.9999 15.9255 1.01608C17.3575 1.16976 18.4423 2.37987 18.4392 3.82008C18.4388 3.97173 18.42 4.14321 18.3955 4.36685C18.3939 4.38075 18.3924 4.39484 18.3908 4.40914L16.8651 4.24204C16.8963 3.95639 16.9042 3.87466 16.9043 3.81675C16.9057 3.1621 16.4126 2.61205 15.7617 2.5422C15.7041 2.53602 15.6221 2.5349 15.3347 2.5349H8.66531C8.37792 2.5349 8.29585 2.53602 8.23826 2.5422C7.58735 2.61205 7.09425 3.1621 7.09568 3.81675C7.0958 3.87467 7.10362 3.95637 7.13491 4.24205L5.60915 4.40914C5.60758 4.39482 5.60603 4.3807 5.6045 4.36679C5.57995 4.14317 5.56113 3.97172 5.5608 3.82008C5.55767 2.37987 6.64249 1.16976 8.07448 1.01608C8.22526 0.9999 8.39774 0.999946 8.6227 1.00001Z" fill="#7E818F"/>
<path fill-rule="evenodd" clip-rule="evenodd" d="M8.16278 18.1395C8.16278 17.7157 8.50638 17.3721 8.93022 17.3721H15.0698C15.4936 17.3721 15.8372 17.7157 15.8372 18.1395C15.8372 18.5634 15.4936 18.907 15.0698 18.907H8.93022C8.50638 18.907 8.16278 18.5634 8.16278 18.1395Z" fill="#7E818F"/>
<path fill-rule="evenodd" clip-rule="evenodd" d="M8.53724 6.11621H15.4627C17.1404 6.11619 18.4772 6.11618 19.5124 6.25387C20.5758 6.39532 21.458 6.69707 22.118 7.40992C22.7851 8.13055 22.9919 9.01865 22.9997 10.0561C23.0073 11.0534 22.8296 12.3138 22.6089 13.8789L22.1597 17.0649C21.9872 18.2888 21.847 19.283 21.6289 20.0621C21.4008 20.8773 21.0645 21.5479 20.4418 22.0635C19.8241 22.5749 19.0912 22.7955 18.225 22.8994C17.3874 23 16.3337 22.9999 15.0218 22.9999H8.97818C7.66626 22.9999 6.61257 23 5.77499 22.8994C4.90876 22.7955 4.1759 22.5749 3.55816 22.0635C2.93551 21.5479 2.5992 20.8773 2.37104 20.0621C2.15296 19.283 2.01281 18.2888 1.84028 17.0649L1.39108 13.8789C1.17038 12.3138 0.992664 11.0534 1.00023 10.0561C1.00811 9.01865 1.21485 8.13055 1.882 7.40992C2.54195 6.69707 3.42414 6.39532 4.48761 6.25387C5.52279 6.11618 6.8596 6.11619 8.53724 6.11621ZM4.68998 7.77535C3.78433 7.89581 3.31826 8.11787 3.00831 8.45265C2.70557 8.77966 2.54147 9.22466 2.53507 10.0677C2.52847 10.9376 2.68817 12.0846 2.91979 13.7275L3.3526 16.7972C3.5345 18.0874 3.66189 18.9795 3.84912 19.6484C4.02943 20.2926 4.24163 20.6367 4.53703 20.8812C4.83735 21.1299 5.24054 21.2894 5.95787 21.3755C6.69332 21.4637 7.65471 21.465 9.0278 21.465H14.9722C16.3453 21.465 17.3067 21.4637 18.0421 21.3755C18.7594 21.2894 19.1626 21.1299 19.4629 20.8812C19.7584 20.6367 19.9705 20.2926 20.1509 19.6484C20.3381 18.9795 20.4655 18.0874 20.6474 16.7972L21.0802 13.7275C21.3118 12.0846 21.4715 10.9376 21.4649 10.0677C21.4585 9.22466 21.2944 8.77966 20.9917 8.45265C20.6817 8.11787 20.2156 7.89581 19.31 7.77535C18.3879 7.6527 17.1535 7.65109 15.405 7.65109H8.595C6.84644 7.65109 5.61208 7.6527 4.68998 7.77535Z" fill="#7E818F"/>
</svg>
