<svg width="24" height="24" viewBox="0 0 24 24" fill="none" xmlns="http://www.w3.org/2000/svg">
<path fill-rule="evenodd" clip-rule="evenodd" d="M3 22.2326C3 21.8087 3.3436 21.4651 3.76744 21.4651H20.1395C20.5634 21.4651 20.907 21.8087 20.907 22.2326C20.907 22.6564 20.5634 23 20.1395 23H3.76744C3.3436 23 3 22.6564 3 22.2326Z" fill="#1E76F2"/>
<path fill-rule="evenodd" clip-rule="evenodd" d="M14.1016 2.16763C15.6584 0.61079 18.1825 0.61079 19.7394 2.16763C21.2962 3.72447 21.2962 6.2486 19.7394 7.80544L11.9687 15.5761C11.5308 16.0141 11.2633 16.2815 10.9652 16.5141C10.614 16.788 10.234 17.0229 9.83194 17.2145C9.49066 17.3771 9.1318 17.4967 8.54418 17.6926L5.80938 18.6042L5.15279 18.823C4.56508 19.0189 3.91713 18.866 3.47908 18.4279C3.04103 17.9899 2.88807 17.3419 3.08398 16.7542L4.21443 13.3628C4.41027 12.7752 4.52987 12.4163 4.69252 12.0751C4.88414 11.673 5.119 11.293 5.39294 10.9418C5.62545 10.6437 5.89294 10.3762 6.33095 9.93823L14.1016 2.16763ZM5.77397 16.9981L4.90894 16.133L5.65431 13.8969C5.87132 13.2459 5.96095 12.9812 6.07809 12.7354C6.22176 12.4339 6.39784 12.149 6.60321 11.8857C6.77067 11.671 6.96735 11.4725 7.45261 10.9872L13.4806 4.95926C13.7294 5.58343 14.1504 6.33678 14.8603 7.0467C15.5702 7.75662 16.3236 8.1776 16.9477 8.42642L10.9198 14.4544C10.4345 14.9397 10.236 15.1363 10.0213 15.3038C9.75795 15.5092 9.47305 15.6852 9.1716 15.8289C8.92581 15.946 8.6611 16.0357 8.01006 16.2527L5.77397 16.9981ZM18.1708 7.20339C18.0441 7.17558 17.8856 7.13372 17.7055 7.07123C17.2102 6.8994 16.5587 6.57448 15.9456 5.96137C15.3325 5.34826 15.0076 4.69677 14.8358 4.2015C14.7733 4.02137 14.7314 3.86294 14.7036 3.73623L15.1869 3.25296C16.1443 2.29553 17.6966 2.29553 18.654 3.25296C19.6115 4.21039 19.6115 5.76269 18.654 6.72012L18.1708 7.20339Z" fill="#1E76F2"/>
</svg>
