<svg width="24" height="24" viewBox="0 0 24 24" fill="none" xmlns="http://www.w3.org/2000/svg">
<path fill-rule="evenodd" clip-rule="evenodd" d="M3.55151 10.9445C3.8284 6.50531 7.54321 3 12.0721 3C15.1588 3 17.8646 4.62759 19.3635 7.06578C19.6131 7.47178 19.4863 8.00325 19.0803 8.25284C18.6743 8.50244 18.1428 8.37565 17.8932 7.96965C16.6975 6.0246 14.5387 4.72588 12.0721 4.72588C8.49928 4.72588 5.57831 7.44894 5.28505 10.9041L5.32494 10.8645C5.66326 10.5288 6.20964 10.5309 6.54531 10.8693C6.88098 11.2076 6.87884 11.754 6.54052 12.0896L5.00568 13.6125C4.66924 13.9463 4.12655 13.9463 3.79011 13.6125L2.25527 12.0896C1.91695 11.754 1.91481 11.2076 2.25048 10.8693C2.58615 10.5309 3.13253 10.5288 3.47085 10.8645L3.55151 10.9445Z" fill="#131B2A"/>
<path fill-rule="evenodd" clip-rule="evenodd" d="M18.9898 10.5588C19.3259 10.2265 19.8668 10.2265 20.203 10.5588L21.7437 12.0816C22.0826 12.4166 22.0858 12.963 21.7508 13.302C21.4158 13.6409 20.8694 13.6441 20.5305 13.3091L20.443 13.2227C20.1677 17.667 16.4362 21.1724 11.8929 21.1724C8.79708 21.1724 6.08191 19.5462 4.57713 17.1079C4.32684 16.7023 4.45272 16.1706 4.85829 15.9203C5.26387 15.67 5.79555 15.7959 6.04584 16.2015C7.24606 18.1463 9.41402 19.4465 11.8929 19.4465C15.4859 19.4465 18.4181 16.7177 18.7096 13.2623L18.6623 13.3091C18.3233 13.6441 17.777 13.6409 17.4419 13.302C17.1069 12.963 17.1101 12.4166 17.449 12.0816L18.9898 10.5588Z" fill="#131B2A"/>
</svg>
