<svg width="16" height="16" viewBox="0 0 16 16" fill="none" xmlns="http://www.w3.org/2000/svg">
<path fill-rule="evenodd" clip-rule="evenodd" d="M6.30229 2.09677C5.10486 2.09677 4.13415 3.06746 4.13415 4.26486C4.13415 5.46225 5.10486 6.43294 6.30229 6.43294C7.49972 6.43294 8.47042 5.46225 8.47042 4.26486C8.47042 3.06746 7.49972 2.09677 6.30229 2.09677ZM3.03735 4.26486C3.03735 2.46173 4.49911 1 6.30229 1C8.10546 1 9.56723 2.46173 9.56723 4.26486C9.56723 6.06799 8.10546 7.52971 6.30229 7.52971C4.49911 7.52971 3.03735 6.06799 3.03735 4.26486Z" fill="#7E818F"/>
<path fill-rule="evenodd" clip-rule="evenodd" d="M9.8291 2.22759C9.8291 1.92472 10.0746 1.6792 10.3775 1.6792C11.8056 1.6792 12.9633 2.83687 12.9633 4.26494C12.9633 5.693 11.8056 6.85068 10.3775 6.85068C10.0746 6.85068 9.8291 6.60515 9.8291 6.30229C9.8291 5.99942 10.0746 5.7539 10.3775 5.7539C11.1999 5.7539 11.8665 5.08727 11.8665 4.26494C11.8665 3.44261 11.1999 2.77597 10.3775 2.77597C10.0746 2.77597 9.8291 2.53045 9.8291 2.22759Z" fill="#7E818F"/>
<path fill-rule="evenodd" clip-rule="evenodd" d="M3.21288 10.2904C2.43404 10.7354 2.0968 11.2667 2.0968 11.7351C2.0968 12.2035 2.43404 12.7347 3.21288 13.1798C3.9762 13.6159 5.06733 13.9032 6.30234 13.9032C7.53735 13.9032 8.62847 13.6159 9.3918 13.1798C10.1706 12.7347 10.5079 12.2035 10.5079 11.7351C10.5079 11.2667 10.1706 10.7354 9.3918 10.2904C8.62847 9.8542 7.53735 9.56699 6.30234 9.56699C5.06733 9.56699 3.9762 9.8542 3.21288 10.2904ZM2.66871 9.3381C3.62598 8.79111 4.91182 8.47021 6.30234 8.47021C7.69286 8.47021 8.9787 8.79111 9.93596 9.3381C10.8777 9.87623 11.6047 10.7032 11.6047 11.7351C11.6047 12.7669 10.8777 13.5939 9.93596 14.132C8.9787 14.679 7.69286 14.9999 6.30234 14.9999C4.91182 14.9999 3.62598 14.679 2.66871 14.132C1.72696 13.5939 1 12.7669 1 11.7351C1 10.7032 1.72696 9.87623 2.66871 9.3381Z" fill="#7E818F"/>
<path fill-rule="evenodd" clip-rule="evenodd" d="M11.8781 9.58045C11.943 9.28461 12.2354 9.09738 12.5312 9.16226C13.1889 9.30648 13.7836 9.56737 14.2265 9.92978C14.669 10.2919 14.9996 10.7931 14.9996 11.3957C14.9996 11.9382 14.7303 12.401 14.354 12.7506C13.9794 13.0985 13.4742 13.3612 12.9114 13.5306C12.6214 13.6179 12.3155 13.4536 12.2282 13.1636C12.1409 12.8736 12.3052 12.5677 12.5952 12.4804C13.0418 12.3459 13.3855 12.1532 13.6075 11.947C13.8278 11.7424 13.9028 11.5522 13.9028 11.3957C13.9028 11.2234 13.8103 11.0064 13.5319 10.7786C13.254 10.5512 12.83 10.3506 12.2963 10.2336C12.0004 10.1687 11.8132 9.87629 11.8781 9.58045Z" fill="#7E818F"/>
</svg>
