<svg width="24" height="24" viewBox="0 0 24 24" fill="none" xmlns="http://www.w3.org/2000/svg">
<path fill-rule="evenodd" clip-rule="evenodd" d="M2 5.24138C2 4.76545 2.38582 4.37963 2.86175 4.37963H22.0118C22.4878 4.37963 22.8736 4.76545 22.8736 5.24138C22.8736 5.71731 22.4878 6.10313 22.0118 6.10313H2.86175C2.38582 6.10313 2 5.71731 2 5.24138Z" fill="#7E818F"/>
<path fill-rule="evenodd" clip-rule="evenodd" d="M4.68214 7.1978C5.15702 7.16614 5.56765 7.52544 5.59931 8.00032L6.11742 15.772C6.21867 17.2907 6.29074 18.3459 6.44882 19.1394C6.60206 19.9086 6.81538 20.3128 7.11979 20.5976C7.42419 20.8824 7.84173 21.0684 8.61942 21.1701C9.4217 21.275 10.4793 21.2768 12.0014 21.2768H12.8726C14.3947 21.2768 15.4523 21.275 16.2546 21.1701C17.0323 21.0684 17.4498 20.8824 17.7542 20.5976C18.0587 20.3128 18.272 19.9086 18.4252 19.1394C18.5833 18.3459 18.6554 17.2907 18.7566 15.772L19.2747 8.00032C19.3064 7.52544 19.717 7.16614 20.1919 7.1978C20.6668 7.22946 21.0261 7.64009 20.9944 8.11497L20.4723 15.947C20.376 17.391 20.2982 18.5591 20.1155 19.4761C19.9254 20.4302 19.6017 21.2294 18.9317 21.8562C18.2617 22.483 17.4427 22.7529 16.4782 22.879C15.551 23.0003 14.3803 23.0003 12.9331 23.0003H11.941C10.4937 23.0003 9.32299 23.0003 8.39588 22.879C7.43131 22.7529 6.61232 22.483 5.94232 21.8562C5.27232 21.2294 4.94859 20.4302 4.75854 19.4761C4.57586 18.5591 4.49801 17.391 4.40176 15.9469L3.87963 8.11497C3.84797 7.64009 4.20727 7.22946 4.68214 7.1978Z" fill="#7E818F"/>
<path fill-rule="evenodd" clip-rule="evenodd" d="M9.53461 10.0159C10.0082 9.96858 10.4305 10.3141 10.4778 10.7877L11.0411 16.42C11.0884 16.8936 10.7429 17.3159 10.2693 17.3632C9.79577 17.4106 9.37348 17.0651 9.32612 16.5915L8.76289 10.9592C8.71553 10.4856 9.06104 10.0633 9.53461 10.0159Z" fill="#7E818F"/>
<path fill-rule="evenodd" clip-rule="evenodd" d="M15.3387 10.0159C15.8122 10.0633 16.1578 10.4856 16.1104 10.9592L15.5472 16.5915C15.4998 17.0651 15.0775 17.4106 14.6039 17.3632C14.1304 17.3159 13.7849 16.8936 13.8322 16.42L14.3955 10.7877C14.4428 10.3141 14.8651 9.96858 15.3387 10.0159Z" fill="#7E818F"/>
<path fill-rule="evenodd" clip-rule="evenodd" d="M10.5321 1.00008C10.5493 1.00009 10.5667 1.0001 10.5843 1.0001H14.2898C14.3074 1.0001 14.3248 1.00009 14.342 1.00008C14.5853 0.999916 14.799 0.999775 15.0009 1.03202C15.7984 1.15937 16.4886 1.6568 16.8616 2.37312L16.1024 2.76845L16.8616 2.37313C16.956 2.55449 17.0235 2.75728 17.1003 2.9881C17.1057 3.00448 17.1112 3.021 17.1167 3.03766L17.2261 3.36574C17.2261 3.36575 17.2261 3.36575 17.2261 3.36575C17.2475 3.42997 17.2534 3.44748 17.2585 3.46153L17.2585 3.46155C17.4534 4.00035 17.9587 4.36455 18.5315 4.37906C18.5465 4.37944 18.5649 4.37951 18.6326 4.37951V6.10301H18.6229C18.5694 6.10301 18.5275 6.10301 18.4878 6.10201C17.2055 6.06951 16.0742 5.25411 15.6378 4.04781L16.4482 3.75468L15.6378 4.04782C15.6378 4.04782 15.6378 4.04782 15.6378 4.04781C15.6243 4.01055 15.6111 3.97078 15.5942 3.92033L15.5911 3.91078L15.5911 3.91077L15.4817 3.58268C15.3788 3.274 15.3556 3.21272 15.3329 3.16915C15.2119 2.9367 14.9879 2.77528 14.7291 2.73396C14.6806 2.72621 14.6152 2.7236 14.2898 2.7236H10.5843C10.2589 2.7236 10.1935 2.72621 10.1449 2.73396C9.88614 2.77528 9.66219 2.9367 9.54115 3.16915C9.51846 3.21272 9.49528 3.27401 9.39238 3.58268L9.28302 3.91077L8.46549 3.63826L9.28302 3.91077L9.27995 3.91997C9.26305 3.9707 9.2498 4.01045 9.23629 4.04781L9.23629 4.04781C8.79993 5.25411 7.66863 6.06951 6.38624 6.10201C6.34653 6.10301 6.30465 6.10301 6.25121 6.10301H6.24146V4.37951C6.30919 4.37951 6.3276 4.37944 6.34258 4.37906C6.91536 4.36455 7.42066 4.00035 7.61556 3.46155L8.42592 3.75468L7.61556 3.46155C7.62066 3.44746 7.62654 3.43001 7.64796 3.36576L7.64796 3.36575L7.75733 3.03766L7.75733 3.03766C7.76289 3.02099 7.76838 3.00447 7.77383 2.98809C7.8506 2.75728 7.91805 2.55449 8.01249 2.37312L8.01249 2.37312C8.38551 1.6568 9.07564 1.15937 9.87317 1.03202C10.0751 0.999775 10.2888 0.999916 10.5321 1.00008Z" fill="#7E818F"/>
</svg>
