<svg width="24" height="24" viewBox="0 0 24 24" fill="none" xmlns="http://www.w3.org/2000/svg">
<path fill-rule="evenodd" clip-rule="evenodd" d="M9.33166 2.72359C7.45003 2.72359 5.92467 4.24895 5.92467 6.13058C5.92467 8.01221 7.45003 9.53757 9.33166 9.53757C11.2133 9.53757 12.7386 8.01221 12.7386 6.13058C12.7386 4.24895 11.2133 2.72359 9.33166 2.72359ZM4.20117 6.13058C4.20117 3.29709 6.49817 1.00009 9.33166 1.00009C12.1651 1.00009 14.4621 3.29709 14.4621 6.13058C14.4621 8.96407 12.1651 11.2611 9.33166 11.2611C6.49817 11.2611 4.20117 8.96407 4.20117 6.13058Z" fill="#7E818F"/>
<path fill-rule="evenodd" clip-rule="evenodd" d="M14.8733 2.92889C14.8733 2.45296 15.2591 2.06714 15.735 2.06714C17.9791 2.06714 19.7983 3.88634 19.7983 6.13044C19.7983 8.37454 17.9791 10.1937 15.735 10.1937C15.2591 10.1937 14.8733 9.80793 14.8733 9.33199C14.8733 8.85606 15.2591 8.47024 15.735 8.47024C17.0273 8.47024 18.0748 7.42268 18.0748 6.13044C18.0748 4.83821 17.0273 3.79064 15.735 3.79064C15.2591 3.79064 14.8733 3.40482 14.8733 2.92889Z" fill="#7E818F"/>
<path fill-rule="evenodd" clip-rule="evenodd" d="M4.4773 15.5995C3.25344 16.2988 2.7235 17.1337 2.7235 17.8697C2.7235 18.6058 3.25344 19.4406 4.4773 20.14C5.67677 20.8254 7.39136 21.2767 9.33204 21.2767C11.2727 21.2767 12.9873 20.8254 14.1868 20.14C15.4106 19.4406 15.9406 18.6058 15.9406 17.8697C15.9406 17.1337 15.4106 16.2988 14.1868 15.5995C12.9873 14.9141 11.2727 14.4628 9.33204 14.4628C7.39136 14.4628 5.67677 14.9141 4.4773 15.5995ZM3.6222 14.1031C5.12643 13.2435 7.14699 12.7393 9.33204 12.7393C11.5171 12.7393 13.5376 13.2435 15.0419 14.1031C16.5217 14.9487 17.6641 16.2483 17.6641 17.8697C17.6641 19.4912 16.5217 20.7908 15.0419 21.6364C13.5376 22.496 11.5171 23.0002 9.33204 23.0002C7.14699 23.0002 5.12643 22.496 3.6222 21.6364C2.14234 20.7908 1 19.4912 1 17.8697C1 16.2483 2.14234 14.9487 3.6222 14.1031Z" fill="#7E818F"/>
<path fill-rule="evenodd" clip-rule="evenodd" d="M18.0946 14.4836C18.1966 14.0188 18.6561 13.7245 19.121 13.8265C20.1544 14.0531 21.089 14.4631 21.7849 15.0326C22.4803 15.6016 22.9997 16.3893 22.9997 17.3362C22.9997 18.1887 22.5766 18.9159 21.9853 19.4653C21.3967 20.012 20.6028 20.4248 19.7184 20.691C19.2627 20.8283 18.7821 20.5701 18.6448 20.1143C18.5076 19.6586 18.7658 19.1779 19.2215 19.0407C19.9233 18.8294 20.4634 18.5266 20.8123 18.2025C21.1583 17.881 21.2762 17.5821 21.2762 17.3362C21.2762 17.0654 21.1309 16.7244 20.6935 16.3664C20.2567 16.009 19.5905 15.6939 18.7518 15.51C18.2869 15.408 17.9927 14.9485 18.0946 14.4836Z" fill="#7E818F"/>
</svg>
