<svg width="24" height="24" viewBox="0 0 24 24" fill="none" xmlns="http://www.w3.org/2000/svg">
<path fill-rule="evenodd" clip-rule="evenodd" d="M11.9347 1.0001L12 1.0001C12.4759 1.0001 12.8618 1.38592 12.8618 1.86185C12.8618 2.33778 12.4759 2.7236 12 2.7236C9.58603 2.7236 7.86224 2.72543 6.55262 2.9015C5.26778 3.07425 4.51137 3.40036 3.95581 3.95591C3.40026 4.51147 3.07415 5.26788 2.90141 6.55272C2.72533 7.86234 2.7235 9.58613 2.7235 12.0001C2.7235 14.4141 2.72533 16.1379 2.90141 17.4475C3.07415 18.7323 3.40026 19.4887 3.95581 20.0443C4.51137 20.5998 5.26778 20.9259 6.55262 21.0987C7.86224 21.2748 9.58603 21.2766 12 21.2766C14.414 21.2766 16.1378 21.2748 17.4474 21.0987C18.7322 20.9259 19.4886 20.5998 20.0442 20.0443C20.5997 19.4887 20.9259 18.7323 21.0986 17.4475C21.2747 16.1379 21.2765 14.4141 21.2765 12.0001C21.2765 11.5242 21.6623 11.1383 22.1382 11.1383C22.6142 11.1383 23 11.5242 23 12.0001V12.0654C23 14.3996 23 16.2394 22.8067 17.6771C22.6083 19.1531 22.192 20.3338 21.2629 21.263C20.3337 22.1921 19.153 22.6084 17.677 22.8068C16.2393 23.0001 14.3995 23.0001 12.0653 23.0001H11.9347C9.60047 23.0001 7.76075 23.0001 6.32297 22.8068C4.84702 22.6084 3.66627 22.1921 2.73711 21.263C1.80796 20.3338 1.39171 19.1531 1.19327 17.6771C0.999971 16.2394 0.999984 14.3996 1 12.0654V11.9348C0.999984 9.60055 0.999971 7.76084 1.19327 6.32306C1.39171 4.84711 1.80796 3.66637 2.73711 2.73721C3.66627 1.80805 4.84702 1.39181 6.32297 1.19337C7.76074 1.00007 9.60046 1.00008 11.9347 1.0001Z" fill="#131B2A"/>
<path fill-rule="evenodd" clip-rule="evenodd" d="M16.7339 2.62771C16.7481 2.64007 16.7624 2.65246 16.7767 2.66485L19.2145 4.77759C19.9962 5.45502 20.6514 6.02283 21.1028 6.54101C21.5793 7.08812 21.9316 7.69314 21.9316 8.45183C21.9316 9.21051 21.5793 9.81554 21.1028 10.3626C20.6514 10.8808 19.9962 11.4486 19.2145 12.1261L16.7767 14.2388C16.7624 14.2512 16.7481 14.2636 16.7339 14.276C16.4096 14.5571 16.098 14.8273 15.8269 15.0013C15.5592 15.173 15.0469 15.4387 14.4729 15.1766C13.899 14.9145 13.7642 14.3534 13.7187 14.0386C13.6726 13.7198 13.6727 13.3073 13.6728 12.8781C13.6728 12.8593 13.6728 12.8404 13.6728 12.8215V12.1782C12.5521 12.2821 11.4274 12.5843 10.4372 13.0547C9.18668 13.6488 8.21169 14.4806 7.68959 15.4502C7.50242 15.7978 7.10298 15.9738 6.72017 15.8773C6.33736 15.7808 6.06909 15.4365 6.06909 15.0417C6.06909 11.0978 7.25488 8.4926 8.98317 6.88029C10.4169 5.54275 12.1453 4.96236 13.6728 4.80918V4.0822C13.6728 4.06328 13.6728 4.04438 13.6728 4.02551C13.6727 3.59634 13.6726 3.18388 13.7187 2.86505C13.7642 2.55029 13.899 1.98915 14.4729 1.72708C15.0469 1.465 15.5592 1.73064 15.8269 1.9024C16.098 2.07638 16.4096 2.34657 16.7339 2.62771ZM15.3968 3.75041C15.3963 3.85105 15.3963 3.96098 15.3963 4.0822V5.6276C15.3963 6.10353 15.0105 6.48935 14.5345 6.48935C13.145 6.48935 11.4746 6.91305 10.1588 8.14055C9.19716 9.0377 8.36258 10.4226 7.99393 12.5367C8.51535 12.1321 9.09229 11.7855 9.69757 11.4979C11.1773 10.7949 12.8879 10.4143 14.5345 10.4143C15.0105 10.4143 15.3963 10.8001 15.3963 11.2761V12.8215C15.3963 12.9427 15.3963 13.0526 15.3968 13.1533C15.4733 13.0878 15.5563 13.0158 15.6479 12.9364L18.0378 10.8652C18.8801 10.1352 19.4411 9.64626 19.8032 9.23064C20.1492 8.83339 20.2081 8.61903 20.2081 8.45183C20.2081 8.28463 20.1492 8.07027 19.8032 7.67302C19.4411 7.2574 18.8801 6.76847 18.0378 6.0385L15.6479 3.96728C15.5563 3.88789 15.4733 3.81591 15.3968 3.75041Z" fill="#131B2A"/>
</svg>
