<svg width="24" height="25" viewBox="0 0 24 25" fill="none" xmlns="http://www.w3.org/2000/svg">
<path d="M10 22.1201C14.4183 22.1201 18 18.5384 18 14.1201C18 9.70184 14.4183 6.12012 10 6.12012C5.58172 6.12012 2 9.70184 2 14.1201C2 15.3556 2.28008 16.5257 2.7802 17.5704C2.95209 17.9294 3.01245 18.3362 2.90955 18.7207L2.58151 19.9468C2.32295 20.9131 3.20701 21.7972 4.17335 21.5386L5.39939 21.2106C5.78393 21.1077 6.19071 21.168 6.54976 21.3399C7.5944 21.84 8.76449 22.1201 10 22.1201Z" stroke="#131B2A" stroke-width="1.5"/>
<path d="M18 14.622C18.0665 14.5942 18.1324 14.5654 18.1977 14.5356C18.5598 14.3702 18.9661 14.3083 19.3506 14.4112L19.8267 14.5386C20.793 14.7972 21.677 13.9131 21.4185 12.9468L21.2911 12.4707C21.1882 12.0862 21.2501 11.6799 21.4155 11.3178C21.7908 10.4961 22 9.58254 22 8.62012C22 5.03027 19.0899 2.12012 15.5 2.12012C12.7977 2.12012 10.4806 3.7691 9.5 6.11572" stroke="#131B2A" stroke-width="1.5"/>
<path d="M6.51828 14.1201H6.52728M10.009 14.1201H10.018M13.5 14.1201H13.509" stroke="#131B2A" stroke-width="2" stroke-linecap="round" stroke-linejoin="round"/>
</svg>
