<svg width="24" height="24" viewBox="0 0 24 24" fill="none" xmlns="http://www.w3.org/2000/svg">
<path fill-rule="evenodd" clip-rule="evenodd" d="M9.2093 6.7907C7.79648 6.7907 6.65116 7.93602 6.65116 9.34884C6.65116 10.7617 7.79648 11.907 9.2093 11.907C10.6221 11.907 11.7674 10.7617 11.7674 9.34884C11.7674 7.93602 10.6221 6.7907 9.2093 6.7907ZM8.04651 9.34884C8.04651 8.70665 8.56711 8.18605 9.2093 8.18605C9.8515 8.18605 10.3721 8.70665 10.3721 9.34884C10.3721 9.99103 9.8515 10.5116 9.2093 10.5116C8.56711 10.5116 8.04651 9.99103 8.04651 9.34884Z" fill="#131B2A"/>
<path fill-rule="evenodd" clip-rule="evenodd" d="M9.2093 12.3721C8.09697 12.3721 7.05545 12.596 6.2662 12.9907C5.51868 13.3644 4.7907 14.0099 4.7907 14.9302L4.79058 14.9883C4.78915 15.4631 4.78675 16.2625 5.5444 16.8109C5.89598 17.0654 6.3599 17.2277 6.9346 17.3311C7.51461 17.4355 8.25787 17.4884 9.2093 17.4884C10.1607 17.4884 10.904 17.4355 11.484 17.3311C12.0587 17.2277 12.5226 17.0654 12.8742 16.8109C13.6319 16.2625 13.6295 15.4631 13.628 14.9883L13.6279 14.9302C13.6279 14.0099 12.8999 13.3644 12.1524 12.9907C11.3632 12.596 10.3216 12.3721 9.2093 12.3721ZM6.18605 14.9302C6.18605 14.8231 6.29103 14.5383 6.89022 14.2387C7.44768 13.96 8.26662 13.7674 9.2093 13.7674C10.152 13.7674 10.9709 13.96 11.5284 14.2387C12.1276 14.5383 12.2326 14.8231 12.2326 14.9302C12.2326 15.4925 12.1968 15.5788 12.056 15.6806C11.9425 15.7628 11.7087 15.873 11.2369 15.9578C10.7704 16.0418 10.1183 16.093 9.2093 16.093C8.30027 16.093 7.64818 16.0418 7.18168 15.9578C6.70987 15.873 6.47611 15.7628 6.36258 15.6806C6.22185 15.5788 6.18605 15.4925 6.18605 14.9302Z" fill="#131B2A"/>
<path d="M18.5116 12.8372C18.8969 12.8372 19.2093 12.5249 19.2093 12.1395C19.2093 11.7542 18.8969 11.4419 18.5116 11.4419H14.7907C14.4054 11.4419 14.093 11.7542 14.093 12.1395C14.093 12.5249 14.4054 12.8372 14.7907 12.8372H18.5116Z" fill="#131B2A"/>
<path d="M19.2093 9.34884C19.2093 9.73415 18.8969 10.0465 18.5116 10.0465H13.8605C13.4752 10.0465 13.1628 9.73415 13.1628 9.34884C13.1628 8.96352 13.4752 8.65116 13.8605 8.65116H18.5116C18.8969 8.65116 19.2093 8.96352 19.2093 9.34884Z" fill="#131B2A"/>
<path d="M18.5116 15.6279C18.8969 15.6279 19.2093 15.3155 19.2093 14.9302C19.2093 14.5449 18.8969 14.2326 18.5116 14.2326H15.7209C15.3356 14.2326 15.0233 14.5449 15.0233 14.9302C15.0233 15.3155 15.3356 15.6279 15.7209 15.6279H18.5116Z" fill="#131B2A"/>
<path fill-rule="evenodd" clip-rule="evenodd" d="M10.0871 4H13.9129C15.6225 3.99999 16.9766 3.99997 18.0363 4.14245C19.1269 4.28908 20.0097 4.59803 20.7058 5.29418C21.402 5.99033 21.7109 6.87308 21.8575 7.9637C22 9.02343 22 10.3775 22 12.087V12.192C22 13.9015 22 15.2556 21.8575 16.3154C21.7109 17.406 21.402 18.2887 20.7058 18.9849C20.0097 19.681 19.1269 19.99 18.0363 20.1366C16.9766 20.2791 15.6225 20.2791 13.913 20.2791H10.0871C8.37753 20.2791 7.02343 20.2791 5.9637 20.1366C4.87308 19.99 3.99033 19.681 3.29418 18.9849C2.59803 18.2887 2.28908 17.406 2.14245 16.3154C1.99997 15.2556 1.99999 13.9016 2 12.192V12.0871C1.99999 10.3775 1.99997 9.02343 2.14245 7.9637C2.28908 6.87308 2.59803 5.99033 3.29418 5.29418C3.99033 4.59803 4.87308 4.28908 5.9637 4.14245C7.02343 3.99997 8.37752 3.99999 10.0871 4ZM6.14963 5.52536C5.21373 5.65119 4.67452 5.88716 4.28084 6.28084C3.88716 6.67452 3.65119 7.21373 3.52536 8.14963C3.39683 9.1056 3.39535 10.3657 3.39535 12.1395C3.39535 13.9133 3.39683 15.1735 3.52536 16.1294C3.65119 17.0653 3.88716 17.6045 4.28084 17.9982C4.67452 18.3919 5.21373 18.6279 6.14963 18.7537C7.10559 18.8822 8.36575 18.8837 10.1395 18.8837H13.8605C15.6343 18.8837 16.8944 18.8822 17.8504 18.7537C18.7863 18.6279 19.3255 18.3919 19.7192 17.9982C20.1128 17.6045 20.3488 17.0653 20.4746 16.1294C20.6032 15.1735 20.6047 13.9133 20.6047 12.1395C20.6047 10.3657 20.6032 9.1056 20.4746 8.14963C20.3488 7.21373 20.1128 6.67452 19.7192 6.28084C19.3255 5.88716 18.7863 5.65119 17.8504 5.52536C16.8944 5.39683 15.6343 5.39535 13.8605 5.39535H10.1395C8.36575 5.39535 7.1056 5.39683 6.14963 5.52536Z" fill="#131B2A"/>
</svg>
