<?xml version="1.0" encoding="UTF-8" standalone="no"?>
<!DOCTYPE svg PUBLIC "-//W3C//DTD SVG 1.1//EN" "http://www.w3.org/Graphics/SVG/1.1/DTD/svg11.dtd">
<svg width="100%" height="100%" viewBox="0 0 133 29" version="1.1" xmlns="http://www.w3.org/2000/svg" xmlns:xlink="http://www.w3.org/1999/xlink" xml:space="preserve" xmlns:serif="http://www.serif.com/" style="fill-rule:evenodd;clip-rule:evenodd;stroke-linejoin:round;stroke-miterlimit:2;">
    <path d="M19.974,1.074C17.349,0.05 14.475,-0.159 11.729,0.476C8.983,1.111 6.493,2.56 4.584,4.634C2.675,6.707 1.436,9.309 1.03,12.098C0.624,14.887 1.069,17.733 2.307,20.265C3.544,22.797 5.518,24.897 7.968,26.289C10.419,27.681 13.233,28.301 16.041,28.068L17.207,27.971L17.207,24.508L15.756,24.628C13.64,24.804 11.52,24.336 9.673,23.287C7.827,22.238 6.34,20.657 5.408,18.749C4.475,16.841 4.14,14.697 4.446,12.595C4.752,10.494 5.685,8.534 7.124,6.972C8.562,5.41 10.438,4.318 12.507,3.84C14.576,3.361 16.741,3.518 18.719,4.29C20.697,5.062 22.396,6.414 23.594,8.167C24.792,9.92 25.432,11.995 25.432,14.118L25.431,15.844L25.432,15.844L25.432,19.54C25.432,20.441 24.702,21.171 23.802,21.171C22.901,21.171 22.172,20.441 22.172,19.54L22.172,14.02L22.171,14.02C22.12,10.04 18.877,6.829 14.884,6.829C10.859,6.829 7.596,10.091 7.596,14.116C7.596,18.141 10.859,21.404 14.884,21.404C16.314,21.404 17.648,20.992 18.773,20.28C19.131,22.737 21.246,24.623 23.802,24.623C26.608,24.623 28.884,22.347 28.884,19.54L28.884,14.02L28.883,14.02C28.864,11.236 28.016,8.52 26.444,6.22C24.855,3.893 22.6,2.099 19.974,1.074ZM15.935,14.35C16.595,13.98 17.042,13.273 17.042,12.462C17.042,11.267 16.073,10.298 14.878,10.298C13.683,10.298 12.715,11.267 12.715,12.462C12.715,13.264 13.152,13.964 13.801,14.338L12.479,17.934L17.252,17.934L15.935,14.35Z" style="fill:rgb(30,118,242);"/>
    <path d="M41.201,21.053C40.28,21.053 39.428,20.885 38.644,20.549C37.872,20.213 37.194,19.747 36.609,19.149C36.037,18.54 35.589,17.83 35.265,17.021C34.954,16.2 34.798,15.304 34.798,14.333C34.798,13.363 34.954,12.473 35.265,11.664C35.589,10.843 36.037,10.133 36.609,9.536C37.194,8.926 37.872,8.453 38.644,8.117C39.428,7.781 40.28,7.613 41.201,7.613C42.122,7.613 42.968,7.781 43.74,8.117C44.524,8.453 45.202,8.926 45.774,9.536C46.359,10.146 46.807,10.861 47.118,11.683C47.442,12.492 47.604,13.375 47.604,14.333C47.604,15.292 47.442,16.181 47.118,17.003C46.807,17.812 46.359,18.521 45.774,19.131C45.202,19.741 44.524,20.213 43.74,20.549C42.968,20.885 42.122,21.053 41.201,21.053ZM41.201,19.093C41.836,19.093 42.414,18.975 42.937,18.739C43.472,18.502 43.933,18.173 44.318,17.749C44.704,17.314 45.003,16.81 45.214,16.237C45.438,15.653 45.55,15.018 45.55,14.333C45.55,13.649 45.438,13.021 45.214,12.448C45.003,11.863 44.704,11.359 44.318,10.936C43.933,10.501 43.472,10.165 42.937,9.928C42.414,9.692 41.836,9.573 41.201,9.573C40.566,9.573 39.981,9.692 39.446,9.928C38.924,10.165 38.463,10.494 38.065,10.917C37.679,11.341 37.381,11.845 37.169,12.429C36.957,13.002 36.852,13.637 36.852,14.333C36.852,15.018 36.957,15.653 37.169,16.237C37.381,16.822 37.679,17.326 38.065,17.749C38.463,18.173 38.924,18.502 39.446,18.739C39.981,18.975 40.566,19.093 41.201,19.093ZM49.848,24.973L49.848,11.067L51.789,11.067L51.789,13.307L51.491,13.139C51.565,12.765 51.777,12.411 52.125,12.075C52.474,11.726 52.897,11.446 53.395,11.235C53.905,11.011 54.428,10.899 54.963,10.899C55.846,10.899 56.63,11.117 57.315,11.552C57.999,11.988 58.54,12.585 58.939,13.344C59.337,14.103 59.536,14.974 59.536,15.957C59.536,16.928 59.337,17.799 58.939,18.571C58.553,19.33 58.018,19.933 57.333,20.381C56.649,20.817 55.877,21.035 55.019,21.035C54.446,21.035 53.892,20.923 53.357,20.699C52.822,20.462 52.368,20.164 51.995,19.803C51.621,19.442 51.391,19.069 51.304,18.683L51.789,18.421L51.789,24.973L49.848,24.973ZM54.701,19.261C55.274,19.261 55.784,19.118 56.232,18.832C56.68,18.546 57.035,18.154 57.296,17.656C57.557,17.158 57.688,16.592 57.688,15.957C57.688,15.323 57.557,14.763 57.296,14.277C57.047,13.78 56.699,13.388 56.251,13.101C55.803,12.815 55.286,12.672 54.701,12.672C54.116,12.672 53.6,12.815 53.152,13.101C52.704,13.375 52.349,13.761 52.088,14.259C51.827,14.757 51.696,15.323 51.696,15.957C51.696,16.592 51.827,17.158 52.088,17.656C52.349,18.154 52.704,18.546 53.152,18.832C53.6,19.118 54.116,19.261 54.701,19.261ZM66.197,21.053C65.189,21.053 64.293,20.842 63.509,20.419C62.738,19.983 62.128,19.392 61.68,18.645C61.244,17.899 61.027,17.04 61.027,16.069C61.027,15.298 61.151,14.595 61.4,13.96C61.649,13.325 61.991,12.778 62.427,12.317C62.875,11.845 63.404,11.484 64.013,11.235C64.635,10.973 65.308,10.843 66.029,10.843C66.664,10.843 67.255,10.967 67.803,11.216C68.35,11.453 68.823,11.782 69.221,12.205C69.632,12.629 69.943,13.133 70.155,13.717C70.379,14.29 70.484,14.918 70.472,15.603L70.453,16.424L62.445,16.424L62.016,14.893L68.792,14.893L68.512,15.211L68.512,14.763C68.475,14.352 68.338,13.985 68.101,13.661C67.865,13.338 67.566,13.083 67.205,12.896C66.844,12.709 66.452,12.616 66.029,12.616C65.357,12.616 64.791,12.747 64.331,13.008C63.87,13.257 63.522,13.63 63.285,14.128C63.049,14.613 62.931,15.217 62.931,15.939C62.931,16.623 63.074,17.221 63.36,17.731C63.646,18.229 64.051,18.614 64.573,18.888C65.096,19.162 65.7,19.299 66.384,19.299C66.869,19.299 67.317,19.218 67.728,19.056C68.151,18.894 68.605,18.602 69.091,18.179L70.061,19.541C69.763,19.84 69.396,20.101 68.96,20.325C68.537,20.549 68.083,20.73 67.597,20.867C67.124,20.991 66.658,21.053 66.197,21.053ZM72.561,20.867L72.561,11.067L74.484,11.067L74.484,13.083L74.148,13.307C74.273,12.871 74.515,12.473 74.876,12.112C75.237,11.739 75.666,11.44 76.164,11.216C76.662,10.98 77.172,10.861 77.695,10.861C78.441,10.861 79.064,11.011 79.561,11.309C80.059,11.596 80.433,12.037 80.681,12.635C80.93,13.232 81.055,13.985 81.055,14.893L81.055,20.867L79.132,20.867L79.132,15.024C79.132,14.464 79.057,14.004 78.908,13.643C78.759,13.269 78.529,13.002 78.217,12.84C77.906,12.666 77.521,12.591 77.06,12.616C76.687,12.616 76.345,12.678 76.033,12.803C75.722,12.915 75.449,13.076 75.212,13.288C74.988,13.5 74.808,13.749 74.671,14.035C74.546,14.309 74.484,14.607 74.484,14.931L74.484,20.867L72.561,20.867ZM84.148,20.867L84.148,7.8L92.38,7.8L92.38,9.741L86.164,9.741L86.164,18.925L92.38,18.925L92.38,20.867L84.148,20.867ZM85.063,15.136L85.063,13.195L91.354,13.195L91.354,15.136L85.063,15.136ZM95.092,20.867L95.092,11.067L97.033,11.067L97.033,13.157L96.679,13.381C96.778,13.058 96.934,12.747 97.145,12.448C97.369,12.149 97.637,11.888 97.948,11.664C98.271,11.428 98.614,11.241 98.975,11.104C99.348,10.967 99.727,10.899 100.113,10.899C100.673,10.899 101.165,10.992 101.588,11.179C102.011,11.365 102.359,11.645 102.633,12.019C102.907,12.392 103.106,12.859 103.23,13.419L102.932,13.344L103.062,13.027C103.199,12.741 103.386,12.473 103.622,12.224C103.871,11.963 104.151,11.733 104.462,11.533C104.774,11.334 105.103,11.179 105.452,11.067C105.8,10.955 106.142,10.899 106.478,10.899C107.213,10.899 107.816,11.048 108.289,11.347C108.774,11.645 109.135,12.1 109.372,12.709C109.621,13.319 109.745,14.078 109.745,14.987L109.745,20.867L107.804,20.867L107.804,15.099C107.804,14.539 107.729,14.085 107.58,13.736C107.443,13.375 107.231,13.108 106.945,12.933C106.659,12.759 106.292,12.672 105.844,12.672C105.495,12.672 105.166,12.734 104.854,12.859C104.556,12.971 104.294,13.133 104.07,13.344C103.846,13.556 103.672,13.805 103.548,14.091C103.423,14.365 103.361,14.669 103.361,15.005L103.361,20.867L101.42,20.867L101.42,15.061C101.42,14.551 101.345,14.122 101.196,13.773C101.046,13.413 100.829,13.139 100.542,12.952C100.256,12.765 99.908,12.672 99.497,12.672C99.149,12.672 98.825,12.734 98.527,12.859C98.228,12.971 97.967,13.133 97.743,13.344C97.519,13.543 97.344,13.786 97.22,14.072C97.095,14.346 97.033,14.645 97.033,14.968L97.033,20.867L95.092,20.867ZM116.09,21.053C115.281,21.053 114.541,20.829 113.869,20.381C113.209,19.933 112.68,19.324 112.282,18.552C111.884,17.781 111.685,16.909 111.685,15.939C111.685,14.956 111.884,14.085 112.282,13.325C112.693,12.554 113.24,11.95 113.925,11.515C114.621,11.079 115.399,10.861 116.258,10.861C116.768,10.861 117.235,10.936 117.658,11.085C118.081,11.235 118.448,11.446 118.759,11.72C119.083,11.981 119.344,12.286 119.543,12.635C119.755,12.983 119.885,13.357 119.935,13.755L119.506,13.605L119.506,11.067L121.447,11.067L121.447,20.867L119.506,20.867L119.506,18.533L119.954,18.403C119.879,18.739 119.724,19.069 119.487,19.392C119.263,19.703 118.971,19.983 118.61,20.232C118.261,20.481 117.869,20.68 117.434,20.829C117.011,20.979 116.563,21.053 116.09,21.053ZM116.594,19.28C117.179,19.28 117.695,19.137 118.143,18.851C118.591,18.565 118.94,18.173 119.189,17.675C119.45,17.165 119.581,16.586 119.581,15.939C119.581,15.304 119.45,14.738 119.189,14.24C118.94,13.742 118.591,13.35 118.143,13.064C117.695,12.778 117.179,12.635 116.594,12.635C116.021,12.635 115.511,12.778 115.063,13.064C114.628,13.35 114.279,13.742 114.018,14.24C113.769,14.738 113.645,15.304 113.645,15.939C113.645,16.586 113.769,17.165 114.018,17.675C114.279,18.173 114.628,18.565 115.063,18.851C115.511,19.137 116.021,19.28 116.594,19.28ZM124.449,20.867L124.449,11.067L126.372,11.067L126.372,20.867L124.449,20.867ZM125.382,8.901C124.972,8.901 124.654,8.796 124.43,8.584C124.206,8.372 124.094,8.074 124.094,7.688C124.094,7.327 124.206,7.035 124.43,6.811C124.667,6.587 124.984,6.475 125.382,6.475C125.793,6.475 126.11,6.58 126.334,6.792C126.558,7.004 126.67,7.302 126.67,7.688C126.67,8.049 126.552,8.341 126.316,8.565C126.092,8.789 125.781,8.901 125.382,8.901ZM129.364,20.867L129.364,7.053L131.287,7.053L131.287,20.867L129.364,20.867Z" style="fill:rgb(19,27,42);fill-rule:nonzero;"/>
</svg>
