<svg width="24" height="25" viewBox="0 0 24 25" fill="none" xmlns="http://www.w3.org/2000/svg">
<path fill-rule="evenodd" clip-rule="evenodd" d="M15 1.2793H10.9436C9.10583 1.27928 7.65019 1.27927 6.51098 1.43243C5.33856 1.59006 4.38961 1.92218 3.64124 2.67054C2.89288 3.4189 2.56076 4.36785 2.40314 5.54027C2.24997 6.67949 2.24998 8.13512 2.25 9.97287V16.0293C2.25 17.9015 3.62205 19.4533 5.41551 19.734C5.55348 20.498 5.81753 21.1501 6.34835 21.681C6.95027 22.2829 7.70814 22.5418 8.60825 22.6628C9.47522 22.7793 10.5775 22.7793 11.9451 22.7793H15.0549C16.4225 22.7793 17.5248 22.7793 18.3918 22.6628C19.2919 22.5418 20.0497 22.2829 20.6517 21.681C21.2536 21.079 21.5125 20.3212 21.6335 19.421C21.75 18.5541 21.75 17.4518 21.75 16.0842V10.9744C21.75 9.60684 21.75 8.50452 21.6335 7.63755C21.5125 6.73744 21.2536 5.97956 20.6517 5.37765C20.1208 4.84682 19.4687 4.58278 18.7047 4.44481C18.424 2.65135 16.8722 1.2793 15 1.2793ZM17.1293 4.30047C16.8265 3.41553 15.9876 2.7793 15 2.7793H11C9.09318 2.7793 7.73851 2.78089 6.71085 2.91906C5.70476 3.05432 5.12511 3.30799 4.7019 3.7312C4.27869 4.15441 4.02502 4.73406 3.88976 5.74015C3.75159 6.76781 3.75 8.12248 3.75 10.0293V16.0293C3.75 17.0169 4.38624 17.8558 5.27117 18.1586C5.24998 17.5487 5.24999 16.859 5.25 16.0842V10.9744C5.24998 9.60683 5.24996 8.50451 5.36652 7.63755C5.48754 6.73744 5.74643 5.97956 6.34835 5.37765C6.95027 4.77573 7.70814 4.51684 8.60825 4.39582C9.47522 4.27926 10.5775 4.27928 11.9451 4.2793H15.0549C15.8297 4.27929 16.5194 4.27928 17.1293 4.30047ZM7.40901 6.43831C7.68577 6.16154 8.07435 5.9811 8.80812 5.88245C9.56347 5.78089 10.5646 5.7793 12 5.7793H15C16.4354 5.7793 17.4365 5.78089 18.1919 5.88245C18.9257 5.9811 19.3142 6.16155 19.591 6.43831C19.8678 6.71507 20.0482 7.10364 20.1469 7.83742C20.2484 8.59277 20.25 9.59388 20.25 11.0293V16.0293C20.25 17.4647 20.2484 18.4658 20.1469 19.2212C20.0482 19.955 19.8678 20.3435 19.591 20.6203C19.3142 20.8971 18.9257 21.0775 18.1919 21.1762C17.4365 21.2777 16.4354 21.2793 15 21.2793H12C10.5646 21.2793 9.56347 21.2777 8.80812 21.1762C8.07435 21.0775 7.68577 20.8971 7.40901 20.6203C7.13225 20.3435 6.9518 19.955 6.85315 19.2212C6.75159 18.4658 6.75 17.4647 6.75 16.0293V11.0293C6.75 9.59388 6.75159 8.59277 6.85315 7.83742C6.9518 7.10364 7.13225 6.71507 7.40901 6.43831Z" fill="#7E818F"/>
</svg>
