<svg width="24" height="24" viewBox="0 0 24 24" fill="none" xmlns="http://www.w3.org/2000/svg">
<path d="M20 5.82324H4" stroke="#131B2A" stroke-width="1.5" stroke-linecap="round"/>
<path d="M18.432 8.17676L17.9991 14.67C17.8326 17.1687 17.7493 18.4181 16.9351 19.1797C16.121 19.9414 14.8689 19.9414 12.3646 19.9414H11.6367C9.13247 19.9414 7.88034 19.9414 7.06621 19.1797C6.25209 18.4181 6.1688 17.1687 6.00222 14.67L5.56934 8.17676" stroke="#131B2A" stroke-width="1.5" stroke-linecap="round"/>
<path d="M9.64746 10.5293L10.118 15.2352" stroke="#131B2A" stroke-width="1.5" stroke-linecap="round"/>
<path d="M14.3534 10.5293L13.8828 15.2352" stroke="#131B2A" stroke-width="1.5" stroke-linecap="round"/>
<path d="M6.82324 5.82351C6.87583 5.82351 6.90213 5.82351 6.92597 5.82291C7.70097 5.80327 8.38467 5.31049 8.64838 4.58147C8.65649 4.55904 8.66481 4.5341 8.68144 4.4842L8.77281 4.21008C8.85082 3.97607 8.88982 3.85906 8.94155 3.75971C9.14795 3.36336 9.52981 3.08813 9.97109 3.01766C10.0817 3 10.205 3 10.4517 3H13.5477C13.7943 3 13.9177 3 14.0283 3.01766C14.4696 3.08813 14.8514 3.36336 15.0578 3.75971C15.1096 3.85906 15.1486 3.97607 15.2266 4.21008L15.3179 4.4842C15.3345 4.53403 15.3429 4.55906 15.351 4.58147C15.6147 5.31049 16.2984 5.80327 17.0734 5.82291C17.0972 5.82351 17.1235 5.82351 17.1761 5.82351" stroke="#131B2A" stroke-width="1.5"/>
</svg>
