<svg width="24" height="24" viewBox="0 0 24 24" fill="none" xmlns="http://www.w3.org/2000/svg">
<path fill-rule="evenodd" clip-rule="evenodd" d="M10.9714 2.53488C9.1252 2.53488 7.62855 4.0238 7.62855 5.86047C7.62855 7.69713 9.1252 9.18605 10.9714 9.18605C12.8176 9.18605 14.3143 7.69713 14.3143 5.86047C14.3143 4.0238 12.8176 2.53488 10.9714 2.53488ZM6.08569 5.86047C6.08569 3.1761 8.2731 1 10.9714 1C13.6697 1 15.8571 3.1761 15.8571 5.86047C15.8571 8.54483 13.6697 10.7209 10.9714 10.7209C8.2731 10.7209 6.08569 8.54483 6.08569 5.86047Z" fill="#131B2A"/>
<path fill-rule="evenodd" clip-rule="evenodd" d="M16.1142 14.8142C14.268 14.8142 12.7714 16.3031 12.7714 18.1398C12.7714 19.9764 14.268 21.4653 16.1142 21.4653C17.9604 21.4653 19.4571 19.9764 19.4571 18.1398C19.4571 16.3031 17.9604 14.8142 16.1142 14.8142ZM11.2285 18.1398C11.2285 15.4554 13.4159 13.2793 16.1142 13.2793C18.8125 13.2793 20.9999 15.4554 20.9999 18.1398C20.9999 20.8241 18.8125 23.0002 16.1142 23.0002C13.4159 23.0002 11.2285 20.8241 11.2285 18.1398Z" fill="#131B2A"/>
<path fill-rule="evenodd" clip-rule="evenodd" d="M16.1143 16.0078C16.5404 16.0078 16.8858 16.3514 16.8858 16.7753V19.5039C16.8858 19.9278 16.5404 20.2714 16.1143 20.2714C15.6883 20.2714 15.3429 19.9278 15.3429 19.5039V16.7753C15.3429 16.3514 15.6883 16.0078 16.1143 16.0078Z" fill="#131B2A"/>
<path fill-rule="evenodd" clip-rule="evenodd" d="M13.9717 18.0342C13.9717 17.6104 14.3171 17.372 14.7431 17.372L17.486 17.372C17.912 17.372 18.2574 17.6104 18.2574 18.0342C18.2574 18.4581 17.912 18.8017 17.486 18.8017L14.7431 18.8017C14.3171 18.8017 13.9717 18.4581 13.9717 18.0342Z" fill="#131B2A"/>
<path fill-rule="evenodd" clip-rule="evenodd" d="M6.263 14.8884C5.07464 15.564 4.54286 16.3803 4.54286 17.1163C4.54286 17.8523 5.07464 18.6686 6.263 19.3442C7.42953 20.0074 9.09258 20.4419 10.9714 20.4419C11.6437 20.4419 12.2909 20.3862 12.8992 20.2833L13.1579 21.7964C12.4626 21.9141 11.7288 21.9768 10.9714 21.9768C8.87383 21.9768 6.93687 21.4951 5.49752 20.6769C4.08 19.871 3 18.6408 3 17.1163C3 15.5918 4.08 14.3616 5.49752 13.5558C6.93687 12.7376 8.87383 12.2559 10.9714 12.2559C12.8334 12.2559 14.5646 12.6352 15.9339 13.2892L15.2661 14.6729C14.1324 14.1314 12.6344 13.7907 10.9714 13.7907C9.09258 13.7907 7.42953 14.2253 6.263 14.8884Z" fill="#131B2A"/>
</svg>
