<svg width="24" height="24" viewBox="0 0 24 24" fill="none" xmlns="http://www.w3.org/2000/svg">
<path fill-rule="evenodd" clip-rule="evenodd" d="M5.72093 10.1395C5.72093 8.72671 6.86625 7.5814 8.27907 7.5814C9.69189 7.5814 10.8372 8.72671 10.8372 10.1395C10.8372 11.5524 9.69189 12.6977 8.27907 12.6977C6.86625 12.6977 5.72093 11.5524 5.72093 10.1395ZM8.27907 8.97674C7.63688 8.97674 7.11628 9.49734 7.11628 10.1395C7.11628 10.7817 7.63688 11.3023 8.27907 11.3023C8.92126 11.3023 9.44186 10.7817 9.44186 10.1395C9.44186 9.49734 8.92126 8.97674 8.27907 8.97674Z" fill="#131B2A"/>
<path fill-rule="evenodd" clip-rule="evenodd" d="M15.7209 16.4186C14.3081 16.4186 13.1628 15.2733 13.1628 13.8605C13.1628 12.4476 14.3081 11.3023 15.7209 11.3023C17.1338 11.3023 18.2791 12.4476 18.2791 13.8605C18.2791 15.2733 17.1338 16.4186 15.7209 16.4186ZM14.5581 13.8605C14.5581 14.5027 15.0787 15.0233 15.7209 15.0233C16.3631 15.0233 16.8837 14.5027 16.8837 13.8605C16.8837 13.2183 16.3631 12.6977 15.7209 12.6977C15.0787 12.6977 14.5581 13.2183 14.5581 13.8605Z" fill="#131B2A"/>
<path d="M8.27907 13.1628C8.66438 13.1628 8.97674 13.4752 8.97674 13.8605V18.5116C8.97674 18.8969 8.66438 19.2093 8.27907 19.2093C7.89375 19.2093 7.5814 18.8969 7.5814 18.5116V13.8605C7.5814 13.4752 7.89375 13.1628 8.27907 13.1628Z" fill="#131B2A"/>
<path d="M16.4186 10.1395C16.4186 10.5248 16.1062 10.8372 15.7209 10.8372C15.3356 10.8372 15.0233 10.5248 15.0233 10.1395V5.48837C15.0233 5.10306 15.3356 4.7907 15.7209 4.7907C16.1062 4.7907 16.4186 5.10306 16.4186 5.48837V10.1395Z" fill="#131B2A"/>
<path d="M8.27907 4.7907C8.66438 4.7907 8.97674 5.10306 8.97674 5.48837V6.4186C8.97674 6.80392 8.66438 7.11628 8.27907 7.11628C7.89375 7.11628 7.5814 6.80392 7.5814 6.4186V5.48837C7.5814 5.10306 7.89375 4.7907 8.27907 4.7907Z" fill="#131B2A"/>
<path d="M16.4186 18.5116C16.4186 18.8969 16.1062 19.2093 15.7209 19.2093C15.3356 19.2093 15.0233 18.8969 15.0233 18.5116V17.5814C15.0233 17.1961 15.3356 16.8837 15.7209 16.8837C16.1062 16.8837 16.4186 17.1961 16.4186 17.5814V18.5116Z" fill="#131B2A"/>
<path fill-rule="evenodd" clip-rule="evenodd" d="M11.9466 2H12.0534C14.2007 1.99999 15.8835 1.99998 17.1966 2.17651C18.5405 2.3572 19.601 2.73426 20.4334 3.56664C21.2657 4.39902 21.6428 5.45951 21.8235 6.80345C22 8.11646 22 9.79929 22 11.9466V12.0534C22 14.2007 22 15.8835 21.8235 17.1966C21.6428 18.5405 21.2657 19.601 20.4334 20.4334C19.601 21.2657 18.5405 21.6428 17.1966 21.8235C15.8835 22 14.2007 22 12.0534 22H11.9466C9.79929 22 8.11646 22 6.80345 21.8235C5.45951 21.6428 4.39902 21.2657 3.56664 20.4334C2.73426 19.601 2.3572 18.5405 2.17651 17.1966C1.99998 15.8835 1.99999 14.2007 2 12.0534V11.9466C1.99999 9.79928 1.99998 8.11646 2.17651 6.80345C2.3572 5.45951 2.73426 4.39902 3.56664 3.56664C4.39902 2.73426 5.45951 2.3572 6.80345 2.17651C8.11646 1.99998 9.79928 1.99999 11.9466 2ZM6.98937 3.55941C5.80016 3.7193 5.08321 4.02339 4.5533 4.5533C4.02339 5.08321 3.7193 5.80016 3.55941 6.98937C3.39683 8.19866 3.39535 9.7877 3.39535 12C3.39535 14.2123 3.39683 15.8013 3.55941 17.0106C3.7193 18.1998 4.02339 18.9168 4.5533 19.4467C5.08321 19.9766 5.80016 20.2807 6.98937 20.4406C8.19866 20.6032 9.7877 20.6047 12 20.6047C14.2123 20.6047 15.8013 20.6032 17.0106 20.4406C18.1998 20.2807 18.9168 19.9766 19.4467 19.4467C19.9766 18.9168 20.2807 18.1998 20.4406 17.0106C20.6032 15.8013 20.6047 14.2123 20.6047 12C20.6047 9.7877 20.6032 8.19866 20.4406 6.98937C20.2807 5.80016 19.9766 5.08321 19.4467 4.5533C18.9168 4.02339 18.1998 3.7193 17.0106 3.55941C15.8013 3.39683 14.2123 3.39535 12 3.39535C9.7877 3.39535 8.19866 3.39683 6.98937 3.55941Z" fill="#131B2A"/>
</svg>
