<svg width="24" height="24" viewBox="0 0 24 24" fill="none" xmlns="http://www.w3.org/2000/svg">
<path fill-rule="evenodd" clip-rule="evenodd" d="M16.4893 1.78724L16.5606 1.80634C17.6797 2.1062 18.5693 2.34454 19.2695 2.5975C19.9866 2.85655 20.5755 3.15429 21.0615 3.60956C21.7667 4.27005 22.2603 5.12483 22.4797 6.0658C22.6309 6.7144 22.5943 7.3732 22.4601 8.12379C22.329 8.85669 22.0907 9.74622 21.7908 10.8653L21.2441 12.9058C20.9442 14.0249 20.7059 14.9145 20.4529 15.6147C20.1939 16.3318 19.8961 16.9207 19.4409 17.4067C18.7804 18.1119 17.9256 18.6055 16.9846 18.8249C16.8579 18.8544 16.73 18.877 16.6002 18.893C16.0096 18.9658 15.3945 18.9005 14.6995 18.7623C14.0133 18.6259 13.1896 18.4052 12.1755 18.1335L12.1138 18.1169C10.9947 17.8171 10.1051 17.5787 9.40489 17.3258C8.68775 17.0667 8.09892 16.769 7.61284 16.3137C6.90764 15.6532 6.41413 14.7984 6.19473 13.8575C6.04349 13.2089 6.08006 12.5501 6.21428 11.7995C6.34533 11.0666 6.58369 10.177 6.88356 9.05792L6.89312 9.02227L7.42112 7.05173C7.50944 6.72212 7.59206 6.41378 7.67048 6.12668C8.12179 4.47441 8.47384 3.32762 9.23352 2.51651C9.89402 1.81131 10.7488 1.3178 11.6898 1.0984C12.3384 0.947165 12.9972 0.983734 13.7478 1.11795C14.4807 1.24901 15.3702 1.48737 16.4893 1.78724ZM13.4633 2.70869C12.8159 2.59293 12.4027 2.59147 12.0567 2.67216C11.427 2.81898 10.855 3.14925 10.413 3.62118C9.97715 4.08649 9.70576 4.80829 9.22935 6.55248C9.15204 6.83549 9.07036 7.14031 8.98166 7.47134L8.45403 9.44051C8.14247 10.6033 7.92256 11.4266 7.80502 12.0839C7.68926 12.7313 7.6878 13.1445 7.76848 13.4905C7.91531 14.1202 8.24557 14.6922 8.71751 15.1343C8.97683 15.3771 9.33537 15.5825 9.95391 15.8059C10.5819 16.0328 11.4049 16.254 12.5677 16.5656C13.6134 16.8458 14.3865 17.0525 15.0147 17.1774C15.6399 17.3017 16.0603 17.3314 16.4024 17.2892C16.4768 17.28 16.5481 17.2673 16.6177 17.2511C17.2474 17.1043 17.8194 16.774 18.2614 16.3021C18.5043 16.0428 18.7096 15.6842 18.9331 15.0657C19.1599 14.4377 19.3812 13.6147 19.6927 12.4519L20.2204 10.4827C20.5319 9.31999 20.7518 8.49665 20.8694 7.83934C20.9851 7.19195 20.9866 6.77878 20.9059 6.43275C20.7591 5.80304 20.4288 5.23101 19.9569 4.789C19.6975 4.54611 19.339 4.34079 18.7205 4.11734C18.0925 3.89048 17.2695 3.66926 16.1067 3.3577C14.944 3.04614 14.1206 2.82623 13.4633 2.70869Z" fill="#7E818F"/>
<path fill-rule="evenodd" clip-rule="evenodd" d="M8.65232 7.12162C8.29709 7.21347 7.90701 7.31799 7.47124 7.43475C6.30848 7.74631 5.4855 7.96753 4.85748 8.1944C4.23894 8.41784 3.8804 8.62316 3.62107 8.86605C3.14914 9.30806 2.81888 9.88009 2.67205 10.5098C2.59137 10.8558 2.59282 11.269 2.70858 11.9164C2.82612 12.5737 3.04603 13.397 3.35759 14.5598L3.88523 16.529C4.19679 17.6917 4.41801 18.5147 4.64487 19.1427C4.86832 19.7613 5.07364 20.1198 5.31653 20.3791C5.75854 20.8511 6.33057 21.1813 6.96028 21.3282C7.30631 21.4088 7.71948 21.4074 8.36687 21.2916C9.02418 21.1741 9.84752 20.9542 11.0103 20.6426C12.173 20.3311 12.996 20.1098 13.624 19.883C14.2426 19.6595 14.6011 19.4542 14.8604 19.2113C15.2633 18.834 15.563 18.3619 15.7334 17.8401L17.2695 18.3417C17.0149 19.1215 16.5671 19.8269 15.9651 20.3908C15.479 20.846 14.8902 21.1438 14.1731 21.4028C13.4728 21.6558 12.5833 21.8941 11.4641 22.194L11.3929 22.2131C10.2738 22.5129 9.38424 22.7513 8.65132 22.8824C7.90073 23.0166 7.24193 23.0531 6.59333 22.9019C5.65236 22.6825 4.79758 22.189 4.13709 21.4838C3.68182 20.9977 3.38408 20.4089 3.12503 19.6918C2.87207 18.9915 2.63373 18.102 2.33387 16.9829L1.78713 14.9424C1.48726 13.8233 1.2489 12.9337 1.11784 12.2008C0.983628 11.4503 0.947059 10.7915 1.09829 10.1429C1.31769 9.20188 1.8112 8.3471 2.5164 7.68661C3.00249 7.23134 3.59132 6.93361 4.30845 6.67455C5.00869 6.4216 5.89823 6.18325 7.01735 5.88339L7.05548 5.87317C7.48849 5.75715 7.88505 5.65089 8.2478 5.5571L8.65232 7.12162Z" fill="#7E818F"/>
<path fill-rule="evenodd" clip-rule="evenodd" d="M10.9933 9.75367C11.1088 9.32263 11.5518 9.06684 11.9828 9.18234L16.9058 10.5014C17.3368 10.6169 17.5926 11.06 17.4771 11.491C17.3616 11.922 16.9186 12.1778 16.4875 12.0623L11.5646 10.7432C11.1336 10.6278 10.8778 10.1847 10.9933 9.75367Z" fill="#7E818F"/>
<path fill-rule="evenodd" clip-rule="evenodd" d="M10.2015 12.707C10.317 12.276 10.7601 12.0202 11.1911 12.1357L14.1449 12.9272C14.5759 13.0427 14.8317 13.4857 14.7162 13.9167C14.6007 14.3478 14.1576 14.6036 13.7266 14.4881L10.7729 13.6966C10.3418 13.5811 10.086 13.1381 10.2015 12.707Z" fill="#7E818F"/>
</svg>
