<svg width="16" height="16" viewBox="0 0 16 16" fill="none" xmlns="http://www.w3.org/2000/svg">
<path fill-rule="evenodd" clip-rule="evenodd" d="M8.04089 1H7.95912H7.95911C6.47078 0.99999 5.29885 0.999982 4.38322 1.12309C3.44373 1.2494 2.69384 1.51413 2.10398 2.10398C1.51413 2.69384 1.2494 3.44373 1.12309 4.38322C0.999982 5.29885 0.99999 6.47078 1 7.95911V7.95911V8.04089V8.04089C0.99999 9.52922 0.999982 10.7011 1.12309 11.6168C1.2494 12.5563 1.51413 13.3062 2.10398 13.896C2.69384 14.4859 3.44373 14.7506 4.38322 14.8769C5.29885 15 6.47078 15 7.95912 15H8.04088C9.52922 15 10.7011 15 11.6168 14.8769C12.5563 14.7506 13.3062 14.4859 13.896 13.896C14.4859 13.3062 14.7506 12.5563 14.8769 11.6168C15 10.7011 15 9.52922 15 8.04088V7.95912C15 6.47078 15 5.29885 14.8769 4.38322C14.7506 3.44373 14.4859 2.69384 13.896 2.10398C13.3062 1.51413 12.5563 1.2494 11.6168 1.12309C10.7011 0.999982 9.52922 0.99999 8.04089 1H8.04089ZM8.59988 5.6C8.59988 5.26863 8.33125 5 7.99988 5C7.66851 5 7.39988 5.26863 7.39988 5.6V7.40002L5.59988 7.40002C5.26851 7.40002 4.99988 7.66865 4.99988 8.00002C4.99988 8.33139 5.26851 8.60002 5.59988 8.60002H7.39988L7.39988 10.4C7.39988 10.7314 7.66851 11 7.99988 11C8.33125 11 8.59988 10.7314 8.59988 10.4L8.59988 8.60002L10.3999 8.60002C10.7312 8.60002 10.9999 8.33139 10.9999 8.00002C10.9999 7.66865 10.7312 7.40002 10.3999 7.40002H8.59988V5.6Z" fill="white"/>
</svg>
