<svg width="16" height="16" viewBox="0 0 16 16" fill="none" xmlns="http://www.w3.org/2000/svg">
<path d="M12.645 10.5691L13.8465 6.96456C14.8961 3.81569 15.4209 2.24126 14.5898 1.41017C13.7587 0.57908 12.1843 1.10389 9.03544 2.15351L5.43091 3.35503C2.88946 4.20217 1.61874 4.62575 1.25764 5.24689C0.91412 5.83779 0.91412 6.56758 1.25764 7.15848C1.61874 7.77962 2.88946 8.2032 5.43091 9.05035C5.74587 9.15533 6.10021 9.08037 6.33606 8.84671L10.19 5.02847C10.4068 4.81366 10.7567 4.81529 10.9715 5.0321C11.1863 5.24892 11.1847 5.59883 10.9679 5.81364L7.17618 9.57022C6.91623 9.82776 6.83394 10.2219 6.94966 10.5691C7.7968 13.1105 8.22037 14.3813 8.84151 14.7424C9.43241 15.0859 10.1622 15.0859 10.7531 14.7424C11.3743 14.3813 11.7978 13.1105 12.645 10.5691Z" fill="white"/>
</svg>
