<svg width="24" height="24" viewBox="0 0 24 24" fill="none" xmlns="http://www.w3.org/2000/svg">
<path fill-rule="evenodd" clip-rule="evenodd" d="M14.5643 3.27576C16.2653 1.57475 19.0232 1.57475 20.7242 3.27576C22.4253 4.97678 22.4253 7.73468 20.7242 9.4357L11.9007 18.2592C11.3966 18.7634 11.0998 19.0601 10.7697 19.3176C10.3806 19.6211 9.95957 19.8814 9.5141 20.0937C9.13614 20.2738 8.73798 20.4065 8.06161 20.6319L4.96289 21.6648L4.21677 21.9135C3.6116 22.1153 2.94439 21.9577 2.49332 21.5067C2.04225 21.0556 1.88475 20.3884 2.08647 19.7832L3.36807 15.9384C3.59351 15.262 3.72622 14.8639 3.90634 14.4859C4.11865 14.0404 4.37885 13.6194 4.68236 13.2303C4.93986 12.9001 5.23664 12.6034 5.7408 12.0993L14.5643 3.27576ZM4.9307 20.2047L7.57397 19.3236C8.3099 19.0783 8.62257 18.9728 8.91379 18.834C9.26778 18.6653 9.60234 18.4586 9.91155 18.2174C10.1659 18.019 10.4001 17.7865 10.9486 17.238L17.99 10.1966C17.2564 9.93786 16.3113 9.45825 15.4265 8.57349C14.5417 7.68872 14.0621 6.74361 13.8034 6.00999L6.76202 13.0514C6.2135 13.5999 5.98101 13.8341 5.7826 14.0885C5.54143 14.3977 5.33466 14.7322 5.16596 15.0862C5.02717 15.3774 4.92167 15.6901 4.67636 16.426L3.79527 19.0693L4.9307 20.2047ZM14.9352 4.87818C14.967 5.04093 15.0208 5.26217 15.1105 5.52081C15.3125 6.10309 15.6941 6.86779 16.4132 7.58683C17.1322 8.30586 17.8969 8.68747 18.4792 8.88948C18.7378 8.97921 18.9591 9.03298 19.1218 9.06479L19.7376 8.44904C20.8937 7.29294 20.8937 5.41853 19.7376 4.26242C18.5815 3.10632 16.7071 3.10632 15.551 4.26242L14.9352 4.87818Z" fill="#131B2A"/>
</svg>
