<svg width="24" height="24" viewBox="0 0 24 24" fill="none" xmlns="http://www.w3.org/2000/svg">
<path d="M4 9H15C17.7614 9 20 11.2386 20 14C20 16.7614 17.7614 19 15 19H8.00001M4 9L7 6M4 9L7 12" stroke="#131B2A" stroke-width="1.5" stroke-linecap="round" stroke-linejoin="round"/>
<path fill-rule="evenodd" clip-rule="evenodd" d="M13.9401 2.19362C14.1987 2.45306 14.2002 2.87516 13.9433 3.13642L13.2456 3.84614H18.315C20.3545 3.84614 22 5.52657 22 7.5897C22 8.37531 21.7611 9.10653 21.3525 9.70972C21.1467 10.0136 20.7359 10.0914 20.4351 9.88348C20.1343 9.67558 20.0572 9.2607 20.2631 8.95683C20.5259 8.56884 20.68 8.09877 20.68 7.5897C20.68 6.25417 19.6168 5.17946 18.315 5.17946H13.2456L13.9433 5.88918C14.2002 6.15044 14.1987 6.57254 13.9401 6.83198C13.6814 7.09142 13.2635 7.08995 13.0067 6.8287L11.1917 4.98256C10.9361 4.72259 10.9361 4.30301 11.1917 4.04305L13.0067 2.19691C13.2635 1.93565 13.6814 1.93418 13.9401 2.19362Z" fill="#131B2A"/>
</svg>
