<svg width="24" height="24" viewBox="0 0 24 24" fill="none" xmlns="http://www.w3.org/2000/svg">
<path d="M12 6.65116C12.3853 6.65116 12.6977 6.96352 12.6977 7.34884V12.1761L14.2974 10.5764C14.5698 10.304 15.0116 10.304 15.284 10.5764C15.5565 10.8489 15.5565 11.2906 15.284 11.5631L12.4933 14.3538C12.3625 14.4846 12.185 14.5581 12 14.5581C11.815 14.5581 11.6375 14.4846 11.5067 14.3538L8.71597 11.5631C8.44351 11.2906 8.44351 10.8489 8.71597 10.5764C8.98843 10.304 9.43017 10.304 9.70263 10.5764L11.3023 12.1761V7.34884C11.3023 6.96352 11.6147 6.65116 12 6.65116Z" fill="#131B2A"/>
<path d="M7.5814 16.6512C7.5814 16.2658 7.89375 15.9535 8.27907 15.9535H15.7209C16.1062 15.9535 16.4186 16.2658 16.4186 16.6512C16.4186 17.0365 16.1062 17.3488 15.7209 17.3488H8.27907C7.89375 17.3488 7.5814 17.0365 7.5814 16.6512Z" fill="#131B2A"/>
<path fill-rule="evenodd" clip-rule="evenodd" d="M11.9466 2C9.79928 1.99999 8.11646 1.99998 6.80345 2.17651C5.45951 2.3572 4.39902 2.73426 3.56664 3.56664C2.73426 4.39902 2.3572 5.45951 2.17651 6.80345C1.99998 8.11646 1.99999 9.79928 2 11.9466V12.0534C1.99999 14.2007 1.99998 15.8835 2.17651 17.1966C2.3572 18.5405 2.73426 19.601 3.56664 20.4334C4.39902 21.2657 5.45951 21.6428 6.80345 21.8235C8.11646 22 9.79929 22 11.9466 22H12.0534C14.2007 22 15.8835 22 17.1966 21.8235C18.5405 21.6428 19.601 21.2657 20.4334 20.4334C21.2657 19.601 21.6428 18.5405 21.8235 17.1966C22 15.8835 22 14.2007 22 12.0534V11.9466C22 9.79929 22 8.11646 21.8235 6.80345C21.6428 5.45951 21.2657 4.39902 20.4334 3.56664C19.601 2.73426 18.5405 2.3572 17.1966 2.17651C15.8835 1.99998 14.2007 1.99999 12.0534 2H11.9466ZM4.5533 4.5533C5.08321 4.02339 5.80016 3.7193 6.98937 3.55941C8.19866 3.39683 9.7877 3.39535 12 3.39535C14.2123 3.39535 15.8013 3.39683 17.0106 3.55941C18.1998 3.7193 18.9168 4.02339 19.4467 4.5533C19.9766 5.08321 20.2807 5.80016 20.4406 6.98937C20.6032 8.19866 20.6047 9.7877 20.6047 12C20.6047 14.2123 20.6032 15.8013 20.4406 17.0106C20.2807 18.1998 19.9766 18.9168 19.4467 19.4467C18.9168 19.9766 18.1998 20.2807 17.0106 20.4406C15.8013 20.6032 14.2123 20.6047 12 20.6047C9.7877 20.6047 8.19866 20.6032 6.98937 20.4406C5.80016 20.2807 5.08321 19.9766 4.5533 19.4467C4.02339 18.9168 3.7193 18.1998 3.55941 17.0106C3.39683 15.8013 3.39535 14.2123 3.39535 12C3.39535 9.7877 3.39683 8.19866 3.55941 6.98937C3.7193 5.80016 4.02339 5.08321 4.5533 4.5533Z" fill="#131B2A"/>
<path d="M12 6.65116C12.3853 6.65116 12.6977 6.96352 12.6977 7.34884V12.1761L14.2974 10.5764C14.5698 10.304 15.0116 10.304 15.284 10.5764C15.5565 10.8489 15.5565 11.2906 15.284 11.5631L12.4933 14.3538C12.3625 14.4846 12.185 14.5581 12 14.5581C11.815 14.5581 11.6375 14.4846 11.5067 14.3538L8.71597 11.5631C8.44351 11.2906 8.44351 10.8489 8.71597 10.5764C8.98843 10.304 9.43017 10.304 9.70263 10.5764L11.3023 12.1761V7.34884C11.3023 6.96352 11.6147 6.65116 12 6.65116Z" stroke="#131B2A"/>
<path d="M7.5814 16.6512C7.5814 16.2658 7.89375 15.9535 8.27907 15.9535H15.7209C16.1062 15.9535 16.4186 16.2658 16.4186 16.6512C16.4186 17.0365 16.1062 17.3488 15.7209 17.3488H8.27907C7.89375 17.3488 7.5814 17.0365 7.5814 16.6512Z" stroke="#131B2A"/>
<path fill-rule="evenodd" clip-rule="evenodd" d="M11.9466 2C9.79928 1.99999 8.11646 1.99998 6.80345 2.17651C5.45951 2.3572 4.39902 2.73426 3.56664 3.56664C2.73426 4.39902 2.3572 5.45951 2.17651 6.80345C1.99998 8.11646 1.99999 9.79928 2 11.9466V12.0534C1.99999 14.2007 1.99998 15.8835 2.17651 17.1966C2.3572 18.5405 2.73426 19.601 3.56664 20.4334C4.39902 21.2657 5.45951 21.6428 6.80345 21.8235C8.11646 22 9.79929 22 11.9466 22H12.0534C14.2007 22 15.8835 22 17.1966 21.8235C18.5405 21.6428 19.601 21.2657 20.4334 20.4334C21.2657 19.601 21.6428 18.5405 21.8235 17.1966C22 15.8835 22 14.2007 22 12.0534V11.9466C22 9.79929 22 8.11646 21.8235 6.80345C21.6428 5.45951 21.2657 4.39902 20.4334 3.56664C19.601 2.73426 18.5405 2.3572 17.1966 2.17651C15.8835 1.99998 14.2007 1.99999 12.0534 2H11.9466ZM4.5533 4.5533C5.08321 4.02339 5.80016 3.7193 6.98937 3.55941C8.19866 3.39683 9.7877 3.39535 12 3.39535C14.2123 3.39535 15.8013 3.39683 17.0106 3.55941C18.1998 3.7193 18.9168 4.02339 19.4467 4.5533C19.9766 5.08321 20.2807 5.80016 20.4406 6.98937C20.6032 8.19866 20.6047 9.7877 20.6047 12C20.6047 14.2123 20.6032 15.8013 20.4406 17.0106C20.2807 18.1998 19.9766 18.9168 19.4467 19.4467C18.9168 19.9766 18.1998 20.2807 17.0106 20.4406C15.8013 20.6032 14.2123 20.6047 12 20.6047C9.7877 20.6047 8.19866 20.6032 6.98937 20.4406C5.80016 20.2807 5.08321 19.9766 4.5533 19.4467C4.02339 18.9168 3.7193 18.1998 3.55941 17.0106C3.39683 15.8013 3.39535 14.2123 3.39535 12C3.39535 9.7877 3.39683 8.19866 3.55941 6.98937C3.7193 5.80016 4.02339 5.08321 4.5533 4.5533Z" stroke="#131B2A"/>
</svg>
