<svg width="24" height="24" viewBox="0 0 24 24" fill="none" xmlns="http://www.w3.org/2000/svg">
<path fill-rule="evenodd" clip-rule="evenodd" d="M10.6803 2L10.6614 2C10.5558 1.99999 10.4736 1.99997 10.3958 2.00468C9.40936 2.06442 8.54556 2.68702 8.17694 3.60396C8.14788 3.67624 8.1219 3.75423 8.08852 3.85442L8.08253 3.8724L8.05866 3.94401C8.04099 3.997 8.03607 4.0116 8.03179 4.02344C7.88307 4.43458 7.38887 4.77767 6.86605 4.79092L5.17358 4.87372C4.44221 4.95966 3.81596 5.14263 3.28674 5.57324C3.10189 5.72364 2.93294 5.89259 2.78254 6.07744C2.35193 6.60666 2.16896 7.2329 2.08302 7.96427C1.99998 8.67105 1.99999 9.55975 2 10.662L2 10.706L2 10.7351C1.99997 10.9992 1.99995 11.2468 2.0211 11.4552C2.04451 11.6859 2.09836 11.9309 2.24546 12.1675C2.29327 12.2444 2.34741 12.3171 2.40733 12.385C2.56464 12.5633 2.74734 12.6783 2.93068 12.7633C2.93336 14.2657 2.95238 15.7844 3.08721 17.085C3.16621 17.8471 3.28745 18.5626 3.47976 19.1726C3.66894 19.7727 3.94829 20.3409 4.39047 20.7339C5.15645 21.4148 6.12052 21.715 7.32398 21.8588C8.5053 22 10.0194 22 11.9524 22H12.0476C13.9806 22 15.4947 22 16.676 21.8588C17.8795 21.715 18.8435 21.4148 19.6095 20.7339C20.0517 20.3409 20.3311 19.7727 20.5202 19.1726C20.7125 18.5626 20.8338 17.8471 20.9128 17.085C21.0476 15.7844 21.0666 14.2657 21.0693 12.7633C21.2527 12.6783 21.4354 12.5633 21.5927 12.385C21.6526 12.3171 21.7067 12.2444 21.7545 12.1675C21.9016 11.9309 21.9555 11.6859 21.9789 11.4552C22.0001 11.2468 22 10.9992 22 10.7351L22 10.662C22 9.55974 22 8.67104 21.917 7.96427C21.831 7.2329 21.6481 6.60666 21.2175 6.07744C21.0671 5.89259 20.8981 5.72364 20.7133 5.57324C20.184 5.14263 19.5578 4.95966 18.8264 4.87372L17.134 4.79092C16.6113 4.77768 16.1174 4.43471 15.9686 4.02342C15.9644 4.01167 15.9593 3.99674 15.9418 3.944L15.9119 3.85439C15.8785 3.75421 15.8525 3.67623 15.8235 3.60396C15.4549 2.68702 14.5911 2.06442 13.6046 2.00468C13.5268 1.99997 13.4447 1.99999 13.3391 2L10.6803 2ZM7.87936 6.18605L7.91528 6.18605H16.0847L16.1206 6.18605C17.258 6.18608 18.0542 6.18793 18.6636 6.25953C19.2642 6.3301 19.5924 6.46015 19.8326 6.65557C19.9435 6.74581 20.0449 6.84718 20.1351 6.95809C20.3305 7.19827 20.4606 7.52652 20.5312 8.12711C20.6035 8.74292 20.6046 9.5494 20.6046 10.706C20.6046 11.0093 20.6038 11.1849 20.5907 11.3144C20.5829 11.3909 20.5731 11.4219 20.5694 11.4309C20.5627 11.4417 20.5551 11.452 20.5466 11.4616C20.5391 11.4677 20.5121 11.486 20.4411 11.5154C20.3209 11.5652 20.153 11.6164 19.8624 11.7036L15.0233 13.1553V12.9302C15.0233 12.288 14.5027 11.7674 13.8605 11.7674H10.1395C9.49734 11.7674 8.97675 12.288 8.97675 12.9302V13.1553L4.1376 11.7036C3.84704 11.6164 3.67909 11.5652 3.55887 11.5154C3.48783 11.486 3.4609 11.4676 3.45336 11.4615L8.97675 13.1553L3.43056 11.4309C3.42689 11.4219 3.41708 11.3909 3.40932 11.3144C3.39618 11.1849 3.39535 11.0093 3.39535 10.706C3.39535 9.5494 3.39648 8.74292 3.46884 8.12711C3.53941 7.52652 3.66945 7.19827 3.86487 6.95809C3.95512 6.84718 4.05649 6.74581 4.16739 6.65557C4.40757 6.46015 4.73583 6.3301 5.33641 6.25953C5.94583 6.18793 6.74197 6.18608 7.87936 6.18605ZM10.6803 3.39535C10.547 3.39535 10.5102 3.39566 10.4802 3.39748C10.0318 3.42463 9.63914 3.70763 9.47159 4.12442C9.46037 4.15231 9.44844 4.18713 9.40627 4.31365L9.37989 4.39279C9.3659 4.43475 9.35502 4.46741 9.34393 4.49808C9.30722 4.59955 9.26384 4.69716 9.21449 4.7907H14.7859C14.7366 4.69716 14.6932 4.59956 14.6565 4.49811C14.6454 4.46743 14.6345 4.43475 14.6205 4.39279L14.5941 4.31365C14.552 4.18713 14.54 4.15231 14.5288 4.12442C14.3613 3.70763 13.9686 3.42463 13.5202 3.39748C13.4902 3.39566 13.4534 3.39535 13.3201 3.39535H10.6803ZM4.32753 13.2173C4.33386 14.5539 4.36076 15.838 4.47512 16.9412C4.54938 17.6575 4.65803 18.2692 4.81055 18.7531C4.9662 19.2468 5.14663 19.5392 5.31748 19.691C5.77756 20.1 6.41319 20.3447 7.48956 20.4733C8.5784 20.6035 10.0091 20.6046 12 20.6046C13.9909 20.6046 15.4216 20.6035 16.5104 20.4733C17.5868 20.3447 18.2224 20.1 18.6825 19.691C18.8534 19.5392 19.0338 19.2468 19.1894 18.7531C19.342 18.2692 19.4506 17.6575 19.5249 16.9412C19.6392 15.838 19.6661 14.5539 19.6725 13.2173L15.0233 14.6121V14.9409C15.0233 15.4164 14.7338 15.844 14.2923 16.0205L13.641 16.2811C12.5876 16.7024 11.4124 16.7024 10.359 16.2811L9.70769 16.0205C9.26622 15.844 8.97675 15.4164 8.97675 14.9409V14.6121L4.32753 13.2173ZM10.3721 13.1628V14.7835L10.8772 14.9855C11.598 15.2738 12.402 15.2738 13.1228 14.9855L13.6279 14.7835V13.1628H10.3721Z" fill="#131B2A"/>
</svg>
