<svg width="24" height="24" viewBox="0 0 24 24" fill="none" xmlns="http://www.w3.org/2000/svg">
<path fill-rule="evenodd" clip-rule="evenodd" d="M3.55139 10.9445C3.82828 6.50531 7.54309 3 12.0719 3C15.1587 3 17.8644 4.62759 19.3634 7.06578C19.613 7.47178 19.4862 8.00325 19.0802 8.25284C18.6742 8.50244 18.1427 8.37565 17.8931 7.96965C16.6974 6.0246 14.5386 4.72588 12.0719 4.72588C8.49915 4.72588 5.57819 7.44894 5.28493 10.9041L5.32482 10.8645C5.66314 10.5288 6.20952 10.5309 6.54519 10.8693C6.88086 11.2076 6.87871 11.754 6.54039 12.0896L5.00556 13.6125C4.66912 13.9463 4.12643 13.9463 3.78998 13.6125L2.25515 12.0896C1.91683 11.754 1.91468 11.2076 2.25036 10.8693C2.58603 10.5309 3.13241 10.5288 3.47073 10.8645L3.55139 10.9445Z" fill="#131B2A"/>
<path fill-rule="evenodd" clip-rule="evenodd" d="M18.9896 10.5588C19.3257 10.2265 19.8666 10.2265 20.2028 10.5588L21.7435 12.0816C22.0825 12.4166 22.0857 12.963 21.7506 13.302C21.4156 13.6409 20.8692 13.6441 20.5303 13.3091L20.4428 13.2227C20.1676 17.667 16.436 21.1724 11.8927 21.1724C8.7969 21.1724 6.08173 19.5462 4.57694 17.1079C4.32665 16.7023 4.45254 16.1706 4.85811 15.9203C5.26369 15.67 5.79537 15.7959 6.04566 16.2015C7.24588 18.1463 9.41384 19.4465 11.8927 19.4465C15.4857 19.4465 18.4179 16.7177 18.7094 13.2623L18.6621 13.3091C18.3231 13.6441 17.7768 13.6409 17.4417 13.302C17.1067 12.963 17.1099 12.4166 17.4489 12.0816L18.9896 10.5588Z" fill="#131B2A"/>
</svg>
