<svg width="24" height="24" viewBox="0 0 24 24" fill="none" xmlns="http://www.w3.org/2000/svg">
<path fill-rule="evenodd" clip-rule="evenodd" d="M12.4206 9.82033C11.2167 9.82033 10.2408 10.7962 10.2408 12.0001C10.2408 13.2039 11.2167 14.1798 12.4206 14.1798C13.6244 14.1798 14.6003 13.2039 14.6003 12.0001C14.6003 10.7962 13.6244 9.82033 12.4206 9.82033ZM8.51733 12.0001C8.51733 9.84437 10.2649 8.09683 12.4206 8.09683C14.5763 8.09683 16.3238 9.84437 16.3238 12.0001C16.3238 14.1557 14.5763 15.9033 12.4206 15.9033C10.2649 15.9033 8.51733 14.1557 8.51733 12.0001Z" fill="#7E818F"/>
<path fill-rule="evenodd" clip-rule="evenodd" d="M12.3919 1.00009H12.4487C12.8969 1.00008 13.2761 1.00007 13.5884 1.02138C13.9151 1.04367 14.231 1.09212 14.5399 1.22003C15.2478 1.51329 15.8103 2.07578 16.1036 2.78377C16.258 3.15658 16.2983 3.54618 16.3137 3.95658C16.3247 4.25239 16.4734 4.49232 16.6845 4.61422C16.8957 4.73611 17.1778 4.7449 17.4395 4.60658C17.8026 4.41467 18.1602 4.25478 18.5602 4.20211C19.32 4.10209 20.0884 4.30797 20.6963 4.77448C20.9615 4.97796 21.1615 5.22739 21.3441 5.49913C21.5187 5.75897 21.7083 6.08737 21.9324 6.47552L21.9608 6.52466C22.1849 6.91281 22.3745 7.2412 22.5122 7.52234C22.6562 7.81637 22.7723 8.11425 22.8159 8.44565C22.9159 9.20541 22.71 9.97379 22.2435 10.5817C21.9978 10.9019 21.6806 11.1316 21.3328 11.3501C21.0822 11.5076 20.9487 11.7563 20.9487 12C20.9487 12.2438 21.0822 12.4925 21.3328 12.65C21.6805 12.8685 21.9978 13.0982 22.2434 13.4184C22.7099 14.0263 22.9158 14.7947 22.8158 15.5545C22.7722 15.8859 22.6561 16.1837 22.5121 16.4778C22.3744 16.7589 22.1848 17.0873 21.9607 17.4755L21.9323 17.5246C21.7082 17.9128 21.5186 18.2411 21.344 18.501C21.1614 18.7727 20.9614 19.0222 20.6962 19.2256C20.0883 19.6921 19.3199 19.898 18.5601 19.798C18.1601 19.7453 17.8025 19.5855 17.4394 19.3936C17.1777 19.2552 16.8956 19.264 16.6845 19.3859C16.4734 19.5078 16.3247 19.7477 16.3137 20.0435C16.2983 20.4539 16.258 20.8436 16.1036 21.2164C15.8103 21.9244 15.2478 22.4869 14.5399 22.7801C14.231 22.9081 13.9151 22.9565 13.5884 22.9788C13.2761 23.0001 12.8969 23.0001 12.4487 23.0001H12.3919C11.9437 23.0001 11.5645 23.0001 11.2522 22.9788C10.9256 22.9565 10.6096 22.9081 10.3008 22.7801C9.59277 22.4869 9.03028 21.9244 8.73702 21.2164C8.5826 20.8436 8.54229 20.454 8.52694 20.0436C8.51587 19.7478 8.3672 19.5079 8.15607 19.386C7.94494 19.2641 7.66282 19.2553 7.4011 19.3936C7.03801 19.5855 6.68045 19.7454 6.28038 19.7981C5.52062 19.8981 4.75224 19.6922 4.14428 19.2257C3.87909 19.0222 3.67914 18.7728 3.49652 18.501C3.3219 18.2412 3.13232 17.9128 2.90824 17.5247L2.8798 17.4754C2.65571 17.0873 2.46612 16.759 2.32842 16.4778C2.1844 16.1838 2.06836 15.8859 2.02473 15.5545C1.92471 14.7948 2.13059 14.0264 2.5971 13.4184C2.84275 13.0983 3.16 12.8686 3.50776 12.6501C3.75841 12.4926 3.89187 12.2439 3.89188 12.0001C3.8919 11.7562 3.75844 11.5075 3.50775 11.35C3.16004 11.1315 2.84283 10.9018 2.5972 10.5817C2.13069 9.97372 1.92481 9.20534 2.02483 8.44558C2.06846 8.11418 2.1845 7.8163 2.32852 7.52227C2.46623 7.24113 2.65583 6.91276 2.87993 6.52462L2.90834 6.47541C3.13242 6.08727 3.322 5.75889 3.49662 5.49906C3.67924 5.22732 3.87919 4.97789 4.14438 4.77441C4.75234 4.30791 5.52072 4.10202 6.28048 4.20204C6.68057 4.25472 7.03815 4.41462 7.40127 4.60654C7.66294 4.74485 7.94502 4.73606 8.15612 4.61418C8.36722 4.4923 8.51587 4.25241 8.52693 3.95664C8.54228 3.54621 8.58259 3.15659 8.73702 2.78377C9.03028 2.07578 9.59277 1.51329 10.3008 1.22003C10.6096 1.09212 10.9256 1.04367 11.2522 1.02138C11.5645 1.00007 11.9437 1.00008 12.3919 1.00009ZM11.3695 2.74089C11.1306 2.75719 11.0241 2.78591 10.9603 2.81234C10.6746 2.93068 10.4477 3.15765 10.3293 3.44332C10.2959 3.5241 10.2627 3.66199 10.2492 4.02104C10.218 4.85607 9.78675 5.66287 9.01786 6.10678C8.24898 6.55069 7.33465 6.52076 6.59589 6.1303C6.27823 5.9624 6.1422 5.92221 6.05552 5.9108C5.74894 5.87044 5.4389 5.95352 5.19358 6.14176C5.13879 6.1838 5.06065 6.26168 4.92709 6.46042C4.7892 6.6656 4.62881 6.94247 4.38673 7.36177C4.14464 7.78108 3.98506 8.05842 3.87631 8.28042C3.77098 8.49546 3.7426 8.60207 3.73359 8.67054C3.69323 8.97711 3.7763 9.28716 3.96454 9.53248C4.01776 9.60183 4.12055 9.69953 4.4247 9.89063C5.1323 10.3352 5.61543 11.1122 5.61539 12.0002C5.61534 12.888 5.13223 13.6649 4.42469 14.1094C4.12048 14.3006 4.01767 14.3983 3.96444 14.4676C3.7762 14.713 3.69313 15.023 3.73349 15.3296C3.7425 15.398 3.77088 15.5047 3.87621 15.7197C3.98496 15.9417 4.14454 16.219 4.38663 16.6383C4.62871 17.0576 4.7891 17.3345 4.92699 17.5397C5.06056 17.7384 5.13869 17.8163 5.19348 17.8584C5.4388 18.0466 5.74885 18.1297 6.05542 18.0893C6.1421 18.0779 6.27812 18.0377 6.59574 17.8698C7.33454 17.4794 8.24891 17.4494 9.01782 17.8934C9.78673 18.3373 10.218 19.1441 10.2492 19.9792C10.2627 20.3382 10.2959 20.4761 10.3293 20.5569C10.4477 20.8425 10.6746 21.0695 10.9603 21.1878C11.0241 21.2143 11.1306 21.243 11.3695 21.2593C11.6162 21.2761 11.9361 21.2766 12.4203 21.2766C12.9045 21.2766 13.2245 21.2761 13.4711 21.2593C13.71 21.243 13.8165 21.2143 13.8803 21.1878C14.166 21.0695 14.393 20.8425 14.5113 20.5569C14.5447 20.4761 14.578 20.3382 14.5914 19.9791C14.6226 19.1441 15.0538 18.3373 15.8226 17.8934C16.5916 17.4494 17.506 17.4793 18.2448 17.8698C18.5624 18.0377 18.6984 18.0778 18.7851 18.0892C19.0917 18.1296 19.4017 18.0465 19.647 17.8583C19.7018 17.8162 19.78 17.7384 19.9135 17.5396C20.0514 17.3344 20.2118 17.0576 20.4539 16.6383C20.696 16.219 20.8556 15.9416 20.9643 15.7196C21.0696 15.5046 21.098 15.398 21.107 15.3295C21.1474 15.0229 21.0643 14.7129 20.8761 14.4676C20.8229 14.3982 20.72 14.3005 20.4159 14.1094C19.7083 13.6648 19.2252 12.8878 19.2252 12C19.2253 11.1122 19.7084 10.3353 20.4159 9.89079C20.7201 9.69963 20.8229 9.60191 20.8762 9.53255C21.0644 9.28723 21.1475 8.97718 21.1071 8.67061C21.0981 8.60214 21.0697 8.49553 20.9644 8.28049C20.8557 8.05849 20.6961 7.78115 20.454 7.36184C20.2119 6.94254 20.0515 6.66567 19.9136 6.46049C19.7801 6.26175 19.7019 6.18387 19.6471 6.14182C19.4018 5.95359 19.0918 5.87051 18.7852 5.91087C18.6985 5.92228 18.5625 5.96246 18.2449 6.13034C17.5061 6.52082 16.5917 6.55075 15.8228 6.10681C15.0539 5.66288 14.6226 4.85605 14.5914 4.02099C14.578 3.66198 14.5447 3.52409 14.5113 3.44332C14.393 3.15765 14.166 2.93068 13.8803 2.81234C13.8165 2.78591 13.71 2.75719 13.4711 2.74089C13.2245 2.72406 12.9045 2.72359 12.4203 2.72359C11.9361 2.72359 11.6162 2.72406 11.3695 2.74089Z" fill="#7E818F"/>
</svg>
